<?xml version="1.0" encoding="utf-8"?>
<!-- Generator: Adobe Illustrator 26.0.2, SVG Export Plug-In . SVG Version: 6.00 Build 0)  -->
<svg version="1.1" id="Layer_1" xmlns="http://www.w3.org/2000/svg" xmlns:xlink="http://www.w3.org/1999/xlink" x="0px" y="0px"
	 viewBox="0 0 1960 3799.4" enable-background="new 0 0 1960 3799.4" xml:space="preserve">
<g>
	<g>
		<path fill="#6B37F7" d="M170.7,3564.8l82.9-350.5c12.3-52.5-4.1-78-39.4-81.3v-9.8H508v9.8c-43.5,6.6-47.6,14-36.9,65.7
			l81.3,399.7c7.4,34.5,15.6,42.7,55,48.4v9.8H368.5v-9.8c41-6.6,59.1-18.1,51.7-57.5l-21.3-113.3H228.9l-18.9,86.2
			c-10.7,50.1,13.1,78,73,84.5v9.8H108.3v-9.8C147.7,3640.3,159.2,3614,170.7,3564.8z M391.5,3439.2L337.3,3152h-38.6l-62.4,287.3
			H391.5z"/>
	</g>
</g>
<g>
	<g>
		<path fill="#6B37F7" d="M719.2,3550l90.3-320.9c14-50.1-4.9-66.5-49.2-71.4v-34.5h331.6v34.5c-49.2,6.6-55.8,14-41.9,65.7
			l89.5,350.5c8.2,34.5,17.2,42.7,62.4,48.4v34.5H947.4v-34.5c46.8-6.6,68.9-18.1,59.1-57.5l-18.1-77.2H803.8l-17.2,64
			c-11.5,44.3,13.1,64,69.8,70.6v34.5h-206v-34.5C694.6,3615.7,704.4,3598.5,719.2,3550z M974.5,3428.6L917,3182.3h-33.7
			l-64.8,246.2H974.5z"/>
	</g>
</g>
<g>
	<g>
		<path fill="#6B37F7" d="M1322.8,3534.4l98.5-290.5c15.6-46.8-5.7-55-59.1-61.6v-59.1h370.2v59.1c-55.8,6.6-64,14-47.6,65.7
			l96.8,301.2c10.7,34.5,19.7,42.7,71.4,48.4v59.1h-271.7v-59.1c53.3-6.6,78.8-18.1,67.3-57.5l-12.3-41h-205.2l-13.1,41
			c-12.3,39.4,14,50.9,67.3,57.5v59.1h-238v-59.1C1296.5,3591.1,1306.4,3582.9,1322.8,3534.4z M1612.5,3417.1l-59.1-203.5h-30.4
			l-65.7,203.5H1612.5z"/>
	</g>
</g>
<rect y="0" fill="#6B37F7" width="1960" height="2972.4"/>
<g>
	<path fill="#FFFFFF" d="M111,229.4h42.9c30,0,46.9,17.9,46.9,49.4c0,33.4-19.2,56.6-46.9,56.6H111v-1.8c8-1.3,9.1-2.9,9.1-12.9V244
		c0-9.9-1.1-11.6-9.1-12.9V229.4z M133.3,233.9v96.8h19.4c21.4,0,34.2-17.8,34.2-47.8c0-30.2-13-49.1-34.2-49.1H133.3z"/>
	<path fill="#FFFFFF" d="M277.6,320.8l0.7,0.8c-5.7,8.6-16,15.3-27.9,15.3c-23.5,0-36.5-16-36.5-42.1c0-25.9,14.2-43.7,35.2-43.7
		c17,0,28.9,11.6,29.3,26.7L228,298.6c2.8,21.2,14.3,29,29.5,28.7C263.4,327.3,270.9,325.4,277.6,320.8z M227.8,295.5l35.7-14.8
		c-0.5-13.2-5.5-26.2-17-26.2c-10.9,0-19.1,11.6-19.1,34.4C227.5,291.3,227.7,293.4,227.8,295.5z"/>
	<path fill="#FFFFFF" d="M308.7,306.8c0,13.5,3.1,19.6,16.6,19.6c6,0,11.4-1.3,19.7-6.2v-50.9c0-9.8-0.8-13.5-13.4-13.5v-1.1
		l20.7-2.8c4.1-0.5,5.7,1.1,5.7,6.2v60.8c0,9.8,0.5,14,10.1,14v1.1l-17.4,2.8c-4.1,0.7-5.7-1.1-5.7-6.2v-9
		c-7,9.9-16.3,15.3-26.9,15.3c-14.3,0-22.5-9.8-22.5-26.9v-40.7c0-9.8-0.5-13.5-10.1-13.5v-1.1l17.4-2.8c4.1-0.7,5.7,1.1,5.7,6.2
		V306.8z"/>
	<path fill="#FFFFFF" d="M421,324.7l0.7,1.3c-6.2,6.5-12.4,10.9-20,10.9c-11.1,0-17.6-7-17.6-23.1v-56.7h-10.4v-1.8
		c13.7-4.1,19.7-8.3,21.8-23.1h1.5v20.7h24.4l-0.3,4.2h-24.1v55.1c0,11.7,3.1,15.5,12.2,15.5C413,327.6,415.6,327,421,324.7z"/>
	<path fill="#FFFFFF" d="M473.3,317.4c0-7.8-4.9-13-18.6-19.2c-18.7-8.1-24.9-14.3-24.9-24.8c0-13.7,10.9-22.2,28.7-22.2
		c7.8,0,15.2,1.6,23.1,5.2v21h-1.1c-4.6-13.9-12.2-23-23.6-23c-8.5,0-15,5.1-15,14.5c0,7.5,3.9,11.2,19.1,17.9
		c18.1,8,24.4,14.7,24.4,25.9c0,15.2-11.6,24.1-31.3,24.1c-8,0-16.6-1.5-23.3-3.9v-23.1h1.1c4.2,14.5,11.9,23.8,23.8,23.8
		C465.2,333.7,473.3,327.8,473.3,317.4z"/>
	<path fill="#FFFFFF" d="M511.1,289.2c0,25.8,11.1,38.1,26.2,38.1c6,0,12.4-2,19.1-6.5l0.7,0.8c-5.7,8.6-14.8,15.3-26.7,15.3
		c-18.4,0-32.8-16.1-32.8-42.2c0-26.4,14.7-43.5,36.2-43.5c7,0,14.3,1.8,22,5.2V283h-1.1c-4.6-17.3-13-28.5-24-28.5
		C519,254.5,511.1,267.7,511.1,289.2z"/>
	<path fill="#FFFFFF" d="M597,334.2v1.1h-30v-1.1c7.3-1.5,8.5-2.9,8.5-14.7v-74.2c0-9.8-0.5-13.5-10.1-13.5v-1.1l17.4-2.8
		c4.1-0.7,5.7,1.1,5.7,6.2v32.6c7-9.9,16.1-15.5,26.9-15.5c14.3,0,22.5,9.8,22.5,26.9v41.4c0,11.7,1.1,13.2,8.5,14.7v1.1h-30v-1.1
		c7.3-1.5,8.5-2.9,8.5-14.7v-38.1c0-13.5-3.1-19.6-16.6-19.6c-6,0-11.2,1.3-19.7,6.2v51.5C588.6,331.2,589.7,332.7,597,334.2z"/>
	<path fill="#FFFFFF" d="M684.2,334.2v1.1h-30v-1.1c7.3-1.5,8.5-2.9,8.5-14.7v-74.2c0-9.8-0.5-13.5-10.1-13.5v-1.1l17.4-2.8
		c4.1-0.7,5.7,1.1,5.7,6.2v85.4C675.8,331.2,676.9,332.7,684.2,334.2z"/>
	<path fill="#FFFFFF" d="M757.4,332.2c2,0,3.9-0.5,5.1-1.1v1.3c-2.9,2.9-8.3,4.6-12.9,4.6c-5.4,0-9.9-2.3-9.9-10.9v-6.2
		c-7.5,10.1-16.6,17.1-26.7,17.1c-10.9,0-18.4-8.3-18.4-20.4c0-12.7,8.5-19.6,27.1-24.9l18.1-5.2v-9.6c0-10.8-4.4-15.5-17-15.5
		c-6.8,0-14.7,1.5-23.8,4.7l-1.5-9.6c9.3-3.6,18.3-5.2,27.1-5.2c19.7,0,28,8.3,28,25.3v50.4C752.5,330.4,753.8,332.2,757.4,332.2z
		 M719.9,327c5.4,0,13.4-2.1,19.7-9.3v-29l-14.2,4.4c-11.1,3.4-17.3,9.1-17.3,20.2C708.2,321.5,711.5,327,719.9,327z"/>
	<path fill="#FFFFFF" d="M799.3,334.2v1.1h-30v-1.1c7.3-1.5,8.5-2.9,8.5-14.7v-50.2c0-9.8-0.5-13.5-10.1-13.5v-1.1l17.4-2.8
		c4.1-0.7,5.7,1.1,5.7,6.2v8.5c7-9.9,16.3-15.3,26.9-15.3c14.3,0,22.5,9.8,22.5,26.9v41.4c0,11.7,1.1,13.2,8.5,14.7v1.1h-30v-1.1
		c7.3-1.5,8.5-2.9,8.5-14.7v-38.1c0-13.5-3.1-19.6-16.6-19.6c-6,0-11.4,1.3-19.7,6.2v51.5C790.8,331.2,792,332.7,799.3,334.2z"/>
	<path fill="#FFFFFF" d="M898.1,251.2c4.6,0,8.6,0.7,13,2.3v-7c0-10.3-1.5-15.3-10.8-15.3V230l18.4-2.8c4.1-0.7,5.4,1.1,5.4,6.2
		v85.4c0,10.3,0.2,13.7,9.1,13.7v1.1l-16,2.8c-4.2,0.7-5.5-1.1-5.5-6.2v-9.5c-6.2,8.5-16.3,16.1-27.7,16.1
		c-15.3,0-25.4-14.5-25.4-39C858.6,267.5,874.1,251.2,898.1,251.2z M891.1,326.2c6.5,0,14-2.3,20-7.2v-60.3
		c-3.9-2.6-8.3-4.2-14.2-4.2c-19.4,0-24.6,18.7-24.6,40.4C872.3,317.7,878.2,326.2,891.1,326.2z"/>
</g>
<g>
	<path fill="#FFFFFF" d="M1050.4,333.5l-0.2,1.8h-27.5l0.2-1.8c6.7-1.1,8.3-4.9,9.6-12.4l9.8-79.4c1.1-8.6-0.3-9.5-8.3-10.6l0.3-1.8
		h19.6l26.4,54.6l34.4-54.6h23.6l-0.3,1.8c-8.6,1.3-9.8,3.3-10.9,12.9l-9.8,80c-0.7,5.9,1,8.3,7.7,9.5l-0.2,1.8h-32.9l0.2-1.8
		c9.8-1.3,10.9-2.9,12.2-12.9l10.1-82h-0.7l-31.3,49.7l-7.5,11.9h-1.3l-26.6-55.7h-0.7l-8,72.2C1037,327,1037,332.2,1050.4,333.5z"
		/>
	<path fill="#FFFFFF" d="M1184.7,315.4c-9,14.8-17.1,21.5-25.9,21.5c-12.1,0-19.2-12.7-19.2-32.3c0-31.8,18.6-53.5,45.8-53.5
		c5.7,0,11.2,1,20.4,3.9l-9.6,73.5l10.8-3.4l0.5,1c-9.6,8.5-13.2,10.4-17.8,10.4c-5.4,0-7.5-2.8-6.7-8.3L1184.7,315.4z
		 M1165.6,326.7c6.4,0,12.6-4.6,19.6-14.5l7-50.7l-16.8-7.5c-13.5,4.2-22.5,23.5-22.5,47.9C1152.9,318.5,1157.1,326.7,1165.6,326.7z
		"/>
	<path fill="#FFFFFF" d="M1231.8,299.8c0,17.9,5.5,27.1,19.4,27.1c4.4,0,10.3-1,18.7-5.7l0.8,1.5c-7.2,7-17,14.3-25.8,14.3
		c-16.5,0-26.4-12.4-26.4-34.2c0-29.7,18.3-51.5,41.9-51.5c5.2,0,12.2,1.1,19.1,3.3l-2.9,13.9l-22.5-15
		C1241.4,256.7,1231.8,276,1231.8,299.8z"/>
	<path fill="#FFFFFF" d="M1338.7,322.1c-6.5,8-16.6,14.8-28.2,14.8c-14.8,0-27.1-11.4-27.1-35.2c0-27.4,16.5-50.9,37-50.5
		c14.7,0.2,24.3,12.1,24.3,29.7l-47.9,13.9c-0.2,1.3-0.2,2.6-0.2,3.9c0,19.6,7.7,28.2,20.9,28.2c6.5,0,13.9-2.1,20.5-5.7
		L1338.7,322.1z M1297,291.1l34.4-9.8c0.7-12.4-6.5-26.1-15-28.2C1307.3,253.2,1298.8,271.7,1297,291.1z"/>
	<path fill="#FFFFFF" d="M1420,325.2l0.5,1c-9.6,8.5-13.2,10.4-17.8,10.4c-5.4,0-7.3-2.8-6.7-8.3l1.8-12.6
		c-9,14.7-17.1,21.2-25.8,21.2c-12.1,0-19.2-12.7-19.2-32.3c0-31.8,18.6-53.5,45.8-53.5c2.6,0,5.1,0.2,7.8,0.7l2.4-17.4l-14.3,0.7
		l-0.3-1.1c5.4-3.1,15.8-6.2,21-6.2c5.1,0,6.8,2.8,6.2,8.3l-12.4,92.6L1420,325.2z M1379,326.7c6.4,0,12.4-4.4,19.2-14.2l7-51.2
		l-16.5-7.3c-13.5,4.2-22.5,23.5-22.5,47.9C1366.3,318.5,1370.5,326.7,1379,326.7z"/>
	<path fill="#FFFFFF" d="M1458.4,336.9c-16.6,0-26.2-12.6-26.2-33.1c0-31.3,18.4-52.6,40.4-52.6c18.7,0,26.4,15.8,26.4,33.1
		C1498.9,315.6,1483.1,336.9,1458.4,336.9z M1474.2,330.6c6.8-7,11.1-24.8,11.1-42.4c0-19.7-5.4-39.8-27.1-31.5
		c-7.8,5.9-12.4,23.8-12.4,43.2C1445.8,320.1,1450.9,340.2,1474.2,330.6z"/>
	<path fill="#FFFFFF" d="M1564.3,277.4c1.8-10.8,0.3-14.7-5.5-14.7c-6.8,0-13.9,4.9-26.1,18.6l-7,54l-13,0.8l10.3-78.2l-11.2,0.7
		l-0.3-1.1c6.5-3.9,13.4-6.2,17.8-6.2c4.9,0,7.2,2.8,6.5,8.3l-2.4,18.3c12.2-16.1,25.1-26.6,33.2-26.6c9.1,0,13.7,9.1,11.4,22.8
		l-8.8,54.9l10.9-3.4l0.5,1c-9.3,8.3-13,10.4-17.8,10.4c-5.2,0-7.3-2.6-6.7-8.3L1564.3,277.4z"/>
	<path fill="#FFFFFF" d="M1620.7,325.5l0.5,1c-9.6,8.5-13.2,10.4-17.8,10.4c-5.4,0-7.5-2.8-6.7-8.3l9.3-70.7l-11.1,0.7l-0.3-1.1
		c6.7-3.9,13.4-6.2,17.8-6.2c4.9,0,6.8,2.8,6.2,8.3l-8.8,69.4L1620.7,325.5z M1625.1,225c0,5.9-5.5,11.4-11.6,11.4
		c-4.9,0-8.6-3.7-8.6-8.6c0-5.9,5.7-11.4,11.6-11.4C1621.4,216.3,1625.1,220.1,1625.1,225z"/>
	<path fill="#FFFFFF" d="M1678.6,315.4c-9,14.8-17.1,21.5-25.9,21.5c-12.1,0-19.2-12.7-19.2-32.3c0-31.8,18.6-53.5,45.8-53.5
		c5.7,0,11.2,1,20.4,3.9l-9.6,73.5l10.8-3.4l0.5,1c-9.6,8.5-13.2,10.4-17.8,10.4c-5.4,0-7.5-2.8-6.7-8.3L1678.6,315.4z
		 M1659.5,326.7c6.4,0,12.6-4.6,19.6-14.5l7-50.7l-16.8-7.5c-13.5,4.2-22.5,23.5-22.5,47.9C1646.8,318.5,1651,326.7,1659.5,326.7z"
		/>
	<path fill="#FFFFFF" d="M1766.9,277.4c1.8-10.8,0.3-14.7-5.5-14.7c-6.8,0-13.9,4.9-26.1,18.6l-7,54l-13,0.8l10.3-78.2l-11.2,0.7
		l-0.3-1.1c6.5-3.9,13.4-6.2,17.8-6.2c4.9,0,7.2,2.8,6.5,8.3l-2.4,18.3c12.2-16.1,25.1-26.6,33.2-26.6c9.1,0,13.7,9.1,11.4,22.8
		l-8.8,54.9l10.9-3.4l0.5,1c-9.3,8.3-13,10.4-17.8,10.4c-5.2,0-7.3-2.6-6.7-8.3L1766.9,277.4z"/>
	<path fill="#FFFFFF" d="M1831,318.4c0-22.3-31.3-23.6-31.3-45.3c0-12.6,12.1-21.8,27.9-21.8c7.3,0,13.2,1.1,21,3.9l-2.4,13.9
		l-23.5-15.8c-5.5,0-10.1,6.7-10.1,14.3c0,20,32.1,22.3,32.1,46.3c0,13.5-10.6,23.1-31.1,23.1c-7.2,0-15.6-1.1-21.5-3.9l2.3-13.4
		l23.5,15.5C1826.6,335.5,1831,327.2,1831,318.4z"/>
</g>
<g>
	<path fill="#FFFFFF" d="M146.2,523.4v1.8H110v-1.8c8.1-1.3,9.3-2.9,9.3-12.9v-76.6c0-9.9-1.1-11.6-9.3-12.9v-1.8h36.2v1.8
		c-8.1,1.3-9.3,3.3-9.3,12.9v43.7l35.9-45.5c4.6-6,0.8-10.8-8.6-11.1v-1.8h32.8v1.8c-6.5,0.5-10.4,4.2-15.5,10.4l-24.1,28.7
		l29.3,54.4c2.8,5.7,4.7,7.3,10.4,8.8v1.8h-35.5v-1.8c5.5-1,7.3-3.1,4.4-8.8l-21-39.6l-8,9.5v26.1
		C136.9,520.1,138,522.1,146.2,523.4z"/>
	<path fill="#FFFFFF" d="M234.5,523.7v1.5h-33.1v-1.5c6.7-1.5,7.8-2.9,7.8-14v-49.1c0-9.8-0.5-14.7-9.1-14.7v-1.5l21-2.8
		c4.1-0.5,5.5,1.1,5.5,6.2v61.8C226.7,520.6,227.8,522.2,234.5,523.7z M216.8,404.4c6.4,0,11.6,5.5,11.6,12.1
		c0,6.7-5.2,12.1-11.6,12.1c-6.4,0-11.7-5.4-11.7-12.1C205,409.9,210.4,404.4,216.8,404.4z"/>
	<path fill="#FFFFFF" d="M309.5,508l1,0.8c-6,10.9-16.5,17.9-30,17.9c-23.5,0-37.2-16-37.2-41.6c0-26.1,15-44.2,37.2-44.2
		c17.6,0,29.7,11.2,29.8,26.6l-48.2,19.9c2.6,19.4,12.9,27.1,27.9,26.9C296.6,514.4,303.6,512.4,309.5,508z M261.8,483.9l30.2-12.9
		c-0.3-15-4.7-26.2-14.3-26.2c-9.5,0-16.1,10.9-16.1,31.9C261.4,479.4,261.6,481.6,261.8,483.9z"/>
	<path fill="#FFFFFF" d="M362.8,507.6c0-7.5-4.6-12.6-17-17.9c-19.1-8-25.4-14.2-25.4-24.9c0-14.7,12.1-23.6,31.5-23.6
		c8.2,0,16.3,1.6,24.1,5.1v22.2h-1.3c-5.4-14.7-12.7-23.3-23.5-23.3c-8,0-13.9,5.2-13.9,13.9c0,7,3.9,10.9,17,16.5
		c18.9,7.7,25.4,14.5,25.4,26.2c0,16-12.1,25.3-33.4,25.3c-9,0-17.9-1.6-24.8-4.4v-23.5h1.5c4.9,15,12.7,23.8,23.5,23.8
		C355.6,522.7,362.8,517,362.8,507.6z M339.7,431.4l19.7-29.2l10.8,12.9l-29.3,17.6L339.7,431.4z"/>
	<path fill="#FFFFFF" d="M422,523.7v1.5h-33.3v-1.5c6.7-1.5,7.8-2.9,7.8-14v-72.9c0-9.8-0.3-14.8-9.1-14.8v-1.5l21.2-2.8
		c3.9-0.5,5.4,1.1,5.4,6.2v85.7C414,520.6,415.3,522.2,422,523.7z"/>
	<path fill="#FFFFFF" d="M469.9,441.1c22.2,0,36.8,14.8,36.8,41.4c0,26.7-14.7,44.3-39,44.3c-22.3,0-37-14.3-37-40.9
		C430.8,459.5,445.1,441.1,469.9,441.1z M469.2,522.9c13.2,0,18.7-14.5,18.7-37.7c0-27.9-8-40.3-19.6-40.3
		c-13,0-18.9,15.3-18.9,38.8C449.5,511.1,457.3,522.9,469.2,522.9z"/>
	<path fill="#FFFFFF" d="M598.7,525.2H584l-14.8-47.1l-13.7,47.1h-14.7l-22.5-71.6c-2.1-6.5-3.6-8.5-10.3-9.5v-1.5h37v1.5
		c-7.7,1.1-10.1,3.4-7.7,11.2l17.1,58h0.7l11.6-43.2l-5.2-16.6c-2.1-6.5-3.6-8.5-10.3-9.5v-1.5h37v1.5c-7.7,1.1-10.1,3.4-7.7,11.2
		l17.3,58h0.5L612,457c2-9,0-11.9-10.6-12.9v-1.5h27.1v1.5c-5.7,1-7,3.6-9.3,11.2L598.7,525.2z"/>
	<path fill="#FFFFFF" d="M675.8,507.6c0-7.5-4.6-12.6-17-17.9c-19.1-8-25.4-14.2-25.4-24.9c0-14.7,12.1-23.6,31.5-23.6
		c8.2,0,16.3,1.6,24.1,5.1v22.2h-1.3c-5.4-14.7-12.7-23.3-23.5-23.3c-8,0-13.9,5.2-13.9,13.9c0,7,3.9,10.9,17,16.5
		c18.9,7.7,25.4,14.5,25.4,26.2c0,16-12.1,25.3-33.4,25.3c-9,0-17.9-1.6-24.8-4.4v-23.5h1.5c4.9,15,12.7,23.8,23.5,23.8
		C668.6,522.7,675.8,517,675.8,507.6z"/>
	<path fill="#FFFFFF" d="M734.9,523.7v1.5h-33.3v-1.5c6.7-1.5,7.8-2.9,7.8-14v-72.9c0-9.8-0.3-14.8-9.1-14.8v-1.5l21.2-2.8
		c3.9-0.5,5.4,1.1,5.4,6.2v64.4c12.7-9.1,30.6-24.9,30.6-37.7c0-5.2-3.4-6.5-11.9-6.5v-1.5h18.9c4.4,0,7.3,1.3,7.3,5.5
		c0,8-9.1,16.8-22.8,27.7l15.5,31.9c6.2,11.9,8,15.2,13.7,15.8v1.5h-32.9v-1.5c6.4-0.5,6.2-3.3,0.8-14.2l-10.8-23
		c-2.8,2-5.5,4.2-8.5,6.5v16.6C727,520.6,728.3,522.2,734.9,523.7z"/>
	<path fill="#FFFFFF" d="M815.3,523.7v1.5h-33.1v-1.5c6.7-1.5,7.8-2.9,7.8-14v-49.1c0-9.8-0.5-14.7-9.1-14.7v-1.5l21-2.8
		c4.1-0.5,5.5,1.1,5.5,6.2v61.8C807.5,520.6,808.6,522.2,815.3,523.7z M797.5,404.4c6.4,0,11.6,5.5,11.6,12.1
		c0,6.7-5.2,12.1-11.6,12.1c-6.4,0-11.7-5.4-11.7-12.1C785.8,409.9,791.2,404.4,797.5,404.4z"/>
	<path fill="#FFFFFF" d="M891.9,526.8c-22.2,0-37.2-10.4-37.2-25.9c0-11.9,9.1-20.9,27.9-27.4c-12.9-6.5-24.6-14.2-24.6-28.4
		c0-16,15.2-27.5,36.2-27.5c19.4,0,33.6,9.9,33.6,23.3c0,9.9-7.7,17.3-25.3,23.8c14.7,7.7,29.7,15.8,29.7,32.4
		C932.2,514.6,915.7,526.8,891.9,526.8z M892.4,522.9c12.4,0,22.7-9.5,22.7-20.5c0-13.7-15.6-20.2-30.5-27.9
		c-9.1,6.5-13.7,14.5-13.7,24.3C870.9,513.1,879.5,522.9,892.4,522.9z M900.5,463.7c6.8-5.2,11.1-12.7,11.1-21.2
		c0-12.2-7.5-21-18.1-21c-9.9,0-18.3,8-18.3,17.4C875.3,450.7,887.5,457,900.5,463.7z"/>
</g>
<g>
	<path fill="#FFFFFF" d="M1031.6,511l9.3-76.6c1-9.9,0.5-11.6-7.7-12.9l0.3-1.8h42.9c20.4,0,31,9.8,31,24.9
		c0,16.3-11.2,27.7-30,31.6c2,2.4,3.6,4.7,5.2,7.5l21.8,37.8l-15.5,9.3l-27.1-49.9l-9.3,1.5l-3.6,28.5c-1.3,10.3-0.2,11.6,10.6,12.9
		l-0.2,1.8h-39l0.2-1.8C1029,522.6,1030.5,520.9,1031.6,511z M1059.7,424.8l-6.5,52.5l12.9-2.3c14.8-2.6,22.8-15,22.8-30.6
		c0-12.6-5.9-19.6-17.4-19.6H1059.7z"/>
	<path fill="#FFFFFF" d="M1171.6,511.1c-7.5,9.5-18.1,16.1-30.2,16.1c-16.1,0-28.4-11.9-28.4-35c0-27.1,17.8-50.9,39.1-50.7
		c15.3,0.2,25.9,12.6,25.4,30l-46.9,15.2c0,0.5,0,1.1,0,1.8c0,18.7,8,26.6,20.4,26.6c6.5,0,13.2-1.8,20-5.2L1171.6,511.1z
		 M1130.9,483.1l29.8-9.8c1-12.6-5.2-27.2-12.9-28.8C1139.7,446.1,1132.2,464.4,1130.9,483.1z"/>
	<path fill="#FFFFFF" d="M1202,526.5l-11.7-76.6l-9.8,1.1l-0.3-1.5c7-5.1,12.9-8,17.8-8c6.8,0,8.6,3.3,9.5,9.6l10.3,71.7l23.6-73.8
		l-13.9-4.1l0.2-1.1l18.9-1c8.2-0.8,9,5.2,7.2,9l-34.4,73.8L1202,526.5z"/>
	<path fill="#FFFFFF" d="M1287.2,527.3c-17.4,0-29.5-13.5-29.5-34.9c0-28.7,18.4-50.9,41.4-50.9c18.9,0,29.5,15.3,29.5,34.7
		C1328.6,505.3,1311.7,527.3,1287.2,527.3z M1300.4,521.4c6.4-6.4,10.3-23.8,10.3-41.1c0-21.5-6-39-22.8-33.7
		c-8,6.7-12.2,23.8-12.2,41.6C1275.6,509.7,1282.3,527.4,1300.4,521.4z"/>
	<path fill="#FFFFFF" d="M1355.7,518l9.8-3.4l0.5,1.3c-9.9,9-14.5,11.4-19.7,11.4c-6.2,0-8.3-3.3-7.3-9.6l12.6-90.8l-10.1,1.1
		l-0.3-1.5c7.8-5.4,15-8.5,20-8.5c5.2,0,7.5,3.3,6.7,9.6L1355.7,518z"/>
	<path fill="#FFFFFF" d="M1450.5,514.6l0.5,1.3c-9.9,9-14.5,11.4-19.7,11.4c-6.2,0-8.5-3.3-7.5-9.6l2.4-17.4
		c-12.7,17.6-24.1,27.1-33.4,27.1c-9.9,0-14.5-9.9-12.1-25.4l8.3-51.8l-10.1,1.6l-0.5-1.3c8.2-6.2,14.7-8.8,19.9-8.8
		c5.9,0,8.3,3.3,7.3,9.6l-7.3,45c-2,11.9-0.8,16.6,5.2,16.6c6.2,0,12.7-4.4,23.1-16.5l7.5-53.1l16.8-0.8l-10.8,75.6L1450.5,514.6z"
		/>
	<path fill="#FFFFFF" d="M1505.5,512l0.3,1.3c-7,6.7-19.2,14-28.7,14c-8,0-13-4.9-11.2-16l9.1-62.4l0.3-1.5h-11.6l0.3-3.4l12.2-0.7
		l4.9-21.2l14,0.2l-2.9,20.9h21.7l-1.1,4.2h-21l-9.8,69.8L1505.5,512z"/>
	<path fill="#FFFFFF" d="M1543.6,514.6l0.5,1.3c-9.9,9-14.5,11.4-19.7,11.4c-6.2,0-8.3-3.3-7.3-9.6l9-67.3l-9.9,1.1l-0.5-1.5
		c7.8-5.4,15-8.5,20-8.5c5.4,0,7.5,3.3,6.8,9.6l-8.6,66.8L1543.6,514.6z M1549.3,415.3c0,7.3-6.4,13.5-13.4,13.5
		c-5.7,0-10.1-4.1-10.1-9.9c0-7.3,6.5-13.5,13.5-13.5C1544.9,405.4,1549.3,409.4,1549.3,415.3z"/>
	<path fill="#FFFFFF" d="M1584.5,527.3c-17.4,0-29.5-13.5-29.5-34.9c0-28.7,18.4-50.9,41.4-50.9c18.9,0,29.5,15.3,29.5,34.7
		C1625.9,505.3,1609,527.3,1584.5,527.3z M1597.7,521.4c6.4-6.4,10.3-23.8,10.3-41.1c0-21.5-6-39-22.8-33.7
		c-8,6.7-12.2,23.8-12.2,41.6C1572.9,509.7,1579.6,527.4,1597.7,521.4z"/>
	<path fill="#FFFFFF" d="M1689.3,472.8c2-12.1,0.8-16.8-5.1-16.8c-6.4,0-13,4.7-23.5,17l-6.8,52.6l-17,0.8l10.3-76.1l-10.1,1.1
		l-0.3-1.5c7.7-5.4,15-8.5,20-8.5c5.2,0,7.7,3.3,6.8,9.6l-2.3,17.9c12.7-17.6,24.6-27.5,33.4-27.5c9.9,0,14.7,9.9,12.1,25.4l-8.3,51
		l9.9-3.4l0.5,1.3c-9.6,9-14.3,11.4-19.7,11.4c-6,0-8.3-3.3-7.3-9.6L1689.3,472.8z"/>
	<path fill="#FFFFFF" d="M1756.6,509.2c0-19.4-32.6-24-32.6-44.8c0-13.2,13-22.8,30.2-22.8c7.8,0,15.6,1.5,22.5,4.2l-2.8,17.8
		l-23.6-19.2c-5.7,0-10.8,5.9-10.8,13.2c0,17.6,33.3,22.8,33.3,46.1c0,14.2-12.1,23.6-32.1,23.6c-7.2,0-16.6-1.3-23.6-4.1l2.9-17.3
		l23.3,18.6C1751.4,524.8,1756.6,517.2,1756.6,509.2z"/>
	<path fill="#FFFFFF" d="M1831.8,445.3c0-7.3-6.2-11.7-18.4-11.7c-8.5,0-16.8,2-23.6,5.2l0.5-15c8.5-3.7,18.9-5.7,29.5-5.7
		c19.7,0,31.6,8.1,31.6,19.9c0,11.6-10.4,17.8-25.3,24.3c-11.9,5.2-18.6,8-18.6,14.7c0,4.6,3.6,7.5,9.1,7.5c4.6,0,8.6-1.8,12.7-5.2
		l0.5,2c-5.2,8.5-13,13-21.2,13c-8.3,0-14-4.6-14-11.4c0-8.6,8.6-12.9,20.7-19.6C1827.5,456.7,1831.8,452,1831.8,445.3z
		 M1820.2,513.8c0,7.3-6.4,13.5-14.2,13.5c-6.5,0-11.1-4.7-11.1-10.9c0-7.3,6.2-13.5,14-13.5
		C1815.8,502.8,1820.2,507.6,1820.2,513.8z"/>
</g>
<g>
	<path fill="#FFFFFF" d="M157.3,614.4h-18.4c-12.7,0-22.8,8.5-25.9,28.5h-1.8v-33.9h71.4v3.9l-48.7,96.7h21.4
		c12.6,0,23-9.3,25.8-28.5h2V715h-75.6v-3.6L157.3,614.4z"/>
	<path fill="#FFFFFF" d="M261.6,709.5c1.3,0,2.6-0.3,3.9-1.1l0.3,2.4c-3.3,3.6-9.9,5.9-16.3,5.9c-8.6,0-13.7-4.4-13.7-13.7v-3.7
		c-6.4,11.1-14.8,17.4-24.8,17.4c-11.7,0-19.7-8.6-19.7-21.2c0-12.7,8.6-19.9,28.8-25.6l15.6-4.4v-5.4c0-8.6-4.1-12.4-14.8-12.4
		c-7,0-15.5,1.5-24.9,4.6l-1-15.8c9.9-3.6,20.9-5.5,30.2-5.5c20.7,0,31.8,9.3,31.8,26.4v46.6C257,707.5,258.5,709.5,261.6,709.5z
		 M203.6,599h18.9v19.6h-18.9V599z M223.8,701c4.1,0,8.6-1.6,12.1-5.4v-26.2l-10.4,3.1c-8.5,2.4-12.9,7.7-12.9,15.8
		C212.5,695.9,216.6,701,223.8,701z M230,599h18.7v19.6H230V599z"/>
	<path fill="#FFFFFF" d="M308,713.2v1.8h-37.5v-1.8c5.9-1.3,7.2-2.9,7.2-13.2v-47.9c0-9.8-0.3-16-8.1-16v-1.8l24.1-2.8
		c4.4-0.5,5.9,1.5,5.9,6.2v16.1c6.8-13.7,13.9-22.7,23.8-22.7h2.8l-0.8,23.1c-3.1-0.5-6.2-0.7-9.1-0.7c-6.8,0-11.1,1-16.6,3.3v43
		C299.6,710.1,300.7,711.9,308,713.2z"/>
	<path fill="#FFFFFF" d="M383.8,697.7l1.1,1.3c-5.2,11.7-12.9,17.6-24.1,17.6c-14,0-21.4-8.5-21.4-25.8v-53.1h-9.8v-2.6
		c16.3-2.4,27.5-10.3,29.5-23.6h2v21h23.5l-0.8,5.2h-22.7v51.5c0,8.3,3.6,12.1,11.1,12.1C376.7,701.3,380.4,700,383.8,697.7z"/>
	<path fill="#FFFFFF" d="M424.3,713.2v1.8h-36.3v-1.8c6-1.3,7.3-2.9,7.3-13.2v-71.9c0-9.8-0.3-16-8.3-16v-1.8l24.8-2.8
		c3.9-0.5,5.2,1.1,5.2,6.2V700C416.9,710.1,418.2,711.9,424.3,713.2z"/>
	<path fill="#FFFFFF" d="M467.1,713.2v1.8h-36.2v-1.8c5.9-1.3,7.2-2.9,7.2-13.2v-47.9c0-9.8-0.3-16-8.2-16v-1.8l24.6-2.8
		c3.9-0.3,5.4,1.1,5.4,6.2V700C460,710.1,461.1,711.9,467.1,713.2z M448.1,592.4c7.5,0,13.9,6.4,13.9,14.3c0,7.8-6.4,14.2-13.9,14.2
		c-7.7,0-13.9-6.4-13.9-14.2C434.2,598.8,440.4,592.4,448.1,592.4z"/>
	<path fill="#FFFFFF" d="M496.8,666c0,23.8,8.1,35.2,23.5,35.2c6.4,0,12.7-2,17.6-5.7l1,1c-6.2,13.2-15.8,20.2-29,20.2
		c-20.9,0-35.7-16.6-35.7-41.1c0-25.9,17.1-44.7,40.1-44.7c7.3,0,16.5,2,23,4.9v26.9h-1.8c-7.5-17.3-14.2-27.7-23.6-27.5
		C503.3,635.1,496.8,645.9,496.8,666z"/>
	<path fill="#FFFFFF" d="M581.6,713.2v1.8h-36.3v-1.8c6-1.3,7.3-2.9,7.3-13.2v-71.9c0-9.8-0.3-16-8.3-16v-1.8l24.8-2.8
		c3.9-0.5,5.2,1.1,5.2,6.2v34.9c7.2-11.7,17-17.8,27.9-17.8c14.2,0,22.7,10.3,22.7,27.1V700c0,10.1,1.3,11.9,7.2,13.2v1.8h-36.2
		v-1.8c6-1.3,7.3-2.9,7.3-13.2v-33.4c0-13.5-3.9-20-15.2-20c-5.2,0-9.8,1.3-13.7,4.6V700C574.2,710.1,575.5,711.9,581.6,713.2z"/>
	<path fill="#FFFFFF" d="M673.6,713.2v1.8h-36.3v-1.8c6-1.3,7.3-2.9,7.3-13.2v-71.9c0-9.8-0.3-16-8.3-16v-1.8l24.8-2.8
		c3.9-0.5,5.2,1.1,5.2,6.2v62.6c13.4-9.5,27.7-23.3,27.7-35.4c0-5.4-3.6-6.7-11.4-6.7v-1.8h20.9c4.4,0,7.3,1.1,7.3,5.4
		c0,7-8.5,15.3-21.7,25.9l15.6,36.2c4.6,9.8,6.4,12.7,11.4,13.2v1.8h-35.5v-1.8c4.9-0.3,5.2-2.1,1.3-11.7l-9.6-24.4
		c-2,1.5-4.1,2.9-6,4.6V700C666.3,710.1,667.6,711.9,673.6,713.2z"/>
	<path fill="#FFFFFF" d="M785.5,695.5l1.1,0.8c-6.2,13.2-17,20.4-31.8,20.4c-23.5,0-38.1-15.8-38.1-41.2c0-26.2,16.1-44.5,39.4-44.5
		c17.9,0,30.2,10.8,30.3,26.4L740,676.4c2.6,17.8,11.4,25.1,26.4,24.9C773.7,701.3,780.4,699.4,785.5,695.5z M739.7,672.1l24.6-10.8
		c-0.2-16.6-3.9-26.4-11.7-26.4c-8.1,0-13.2,10.6-13.2,29.8C739.3,667.4,739.5,669.9,739.7,672.1z"/>
	<path fill="#FFFFFF" d="M829.1,713.2v1.8H793v-1.8c5.9-1.3,7.2-2.9,7.2-13.2v-47.9c0-9.8-0.3-16-8.2-16v-1.8l24.6-2.8
		c3.9-0.3,5.4,1.1,5.4,6.2V700C822,710.1,823.1,711.9,829.1,713.2z M810.1,592.4c7.5,0,13.9,6.4,13.9,14.3c0,7.8-6.4,14.2-13.9,14.2
		c-7.7,0-13.9-6.4-13.9-14.2C796.2,598.8,802.4,592.4,810.1,592.4z"/>
	<path fill="#FFFFFF" d="M887.7,697.7l1.1,1.3c-5.2,11.7-12.9,17.6-24.1,17.6c-14,0-21.4-8.5-21.4-25.8v-53.1h-9.8v-2.6
		c16.3-2.4,27.5-10.3,29.5-23.6h2v21h23.5l-0.8,5.2H865v51.5c0,8.3,3.6,12.1,11.1,12.1C880.5,701.3,884.2,700,887.7,697.7z"/>
	<path fill="#FFFFFF" d="M924,635.3l7.8,24.3h-17.8l8.3-24.3l-17.9,19.9l-9.5-14.5l26.6-6.8l-26.7-5.9l9.5-14.5l18.1,19.1l-8.5-23.5
		h17.9l-7.8,23.5l17.8-19.1l9.6,14.2l-26.7,6.2l26.7,6.8l-9.5,14.3L924,635.3z"/>
</g>
<g>
	<path fill="#FFFFFF" d="M1051.8,714l-0.2,2h-32.8l0.2-2c8.1-1.3,10.6-3.4,12.1-15.2l9.5-76.9c1-7.3-0.5-8.8-8.2-9.9l0.3-2h26.1
		l21.2,50l29-50h32.4l-0.3,2c-8.6,1.3-9.6,2.9-10.8,12.9l-9.6,77.7c-1,8.3,0.2,10.3,7.8,11.4l-0.2,2h-41.9l0.3-2
		c10.1-1.3,11.2-2.9,12.4-12.9l9.8-79.2h-0.7l-38.3,65.2h-2l-23-54h-0.7l-6.5,64.5C1036.7,710.2,1040.6,712.7,1051.8,714z"/>
	<path fill="#FFFFFF" d="M1171.5,717.5c-18.4,0-32.9-14.3-32.9-36.5c0-26.2,18.6-49.2,42.5-49.2c19.1,0,32.6,14.8,32.6,36.2
		C1213.7,695,1195.6,717.5,1171.5,717.5z M1182.1,712.2c6-5.7,9.5-22.8,9.5-39.8c0-23.1-6.5-38.1-18.6-36
		c-8.3,7.5-12.2,23.8-12.2,40.1C1160.7,699.1,1169,714.6,1182.1,712.2z"/>
	<path fill="#FFFFFF" d="M1224,644.2l-0.7-1.6c9-7,16.6-10.8,22.3-10.8c5.7,0,8.3,3.7,7.3,11.1l-2.8,19.7
		c5.1-10.9,12.4-22.3,22.7-32.1l7.7,23l-30.6,12.2l-7,50.2l-20.5,0.8l10.4-74.2L1224,644.2z"/>
	<path fill="#FFFFFF" d="M1321.3,634.7c1.6,0,3.3,0.2,4.9,0.3c-1.6-4.6-3.6-9-6.2-12.9l-16.6,7.2l-1.6-4.4l15.6-6.7
		c-3.3-4.2-7.2-8-11.7-11.1l2.9-4.1c7,3.3,13,7,18.4,10.9l17.4-7.5l1.6,4.6l-15,6.4c16,13.9,22.8,30.8,22.8,48.2
		c0,29.3-18.1,51.8-42.4,51.8c-18.4,0-32.8-13.7-32.8-35.2C1278.7,656.9,1297.3,634.7,1321.3,634.7z M1322.1,712.2
		c6.2-6,9.6-23.8,9.6-40.1c0-8.8-0.8-17.8-2.6-26.2c-3.6-4.4-10.3-7.2-16.1-6.5c-8,7.3-12.1,23-12.1,38.6
		C1300.9,700.9,1309.5,714.3,1322.1,712.2z"/>
	<path fill="#FFFFFF" d="M1398.9,699.9c0-16.6-33.9-24.4-33.9-44.3c0-13.7,14-23.8,32.6-23.8c8.3,0,18.1,2,23.8,4.6l-2.9,21.7
		l-23.6-22.7c-6.2,0-11.7,5.1-11.7,12.1c0,15,34.4,23.1,34.4,46.1c0,14.7-13.4,24-32.9,24c-7.3,0-17.6-1.5-25.9-4.2l3.6-21.2
		l23.3,21.8C1393,714,1398.9,707.3,1398.9,699.9z"/>
	<path fill="#FFFFFF" d="M1480.2,717.5c-6.5,0-9.1-3.6-8-11.1l1.8-12.6c-8.3,16.5-16.3,23.6-25.6,23.6c-12.6,0-20.4-12.4-20.4-32.6
		c0-31.3,18.9-53.1,47.8-53.1c8.2,0,17.3,1.6,26.2,4.9l-9.3,70.1l8.6-3.3l0.5,1.6C1492.1,714.4,1486.6,717.5,1480.2,717.5z
		 M1459.2,701.7c4.2,0,10.1-4.9,15.5-12.9l6-43.4l-14.2-9.5c-9.1,6.5-16.5,24.4-16.5,43.4C1450,692.1,1453.3,701.7,1459.2,701.7z"/>
	<path fill="#FFFFFF" d="M1552.4,736l7-50.2c-8.5,16.3-18.3,24.9-28,24.9c-10.6,0-20.2-9.8-20.2-29.8c0-27.4,19.1-49.1,47.9-49.1
		c8.6,0,18.9,1.8,27.4,4.9l-8.3,60.5c-4.9,34.4-16.6,45.1-44,45.1c-9.5,0-18.4-1.3-26.6-3.7l2.8-20.2L1552.4,736z M1542,695.2
		c5.7,0,12.4-5.7,18.1-14.8l4.9-35.2l-12.2-9.6c-9.9,5.1-19.6,19.6-19.6,40.6C1533.2,688.9,1536.9,695.2,1542,695.2z"/>
	<path fill="#FFFFFF" d="M1645.3,717.5c-6.5,0-9.1-3.6-8-11.1l1.8-12.6c-8.3,16.5-16.3,23.6-25.6,23.6c-12.6,0-20.4-12.4-20.4-32.6
		c0-31.3,18.9-53.1,47.8-53.1c8.2,0,17.3,1.6,26.2,4.9l-9.3,70.1l8.6-3.3l0.5,1.6C1657.2,714.4,1651.7,717.5,1645.3,717.5z
		 M1624.3,701.7c4.2,0,10.1-4.9,15.5-12.9l6-43.4l-14.2-9.5c-9.1,6.5-16.5,24.4-16.5,43.4C1615.2,692.1,1618.4,701.7,1624.3,701.7z"
		/>
	<path fill="#FFFFFF" d="M1779.3,627.7l-41.9,88.2h-25.9l64.7-85.7h-67.6l6-20.2h63.6L1779.3,627.7z"/>
	<path fill="#FFFFFF" d="M1853.3,627.7l-41.9,88.2h-25.9l64.7-85.7h-67.6l6-20.2h63.6L1853.3,627.7z"/>
</g>
<g>
	<path fill="#FFFFFF" d="M116.5,888l16.5-69.6c2.4-10.4-0.8-15.5-7.8-16.1v-2h58.4v2c-8.6,1.3-9.5,2.8-7.3,13l16.1,79.4
		c1.5,6.8,3.1,8.5,10.9,9.6v2h-47.4v-2c8.1-1.3,11.7-3.6,10.3-11.4l-4.2-22.5h-33.7l-3.7,17.1c-2.1,9.9,2.6,15.5,14.5,16.8v2h-34.7
		v-2C112,903,114.2,897.8,116.5,888z M160.4,863.1l-10.8-57H142l-12.4,57H160.4z M130.5,769h20v21h-20V769z M156.9,769h20v21h-20
		V769z"/>
	<path fill="#FFFFFF" d="M247.7,929.6v2h-41.6v-2c5.5-1.3,6.8-3.3,6.8-12.9v-72.4c0-9.8-0.3-16.8-7.7-16.8v-2l27.1-2.8
		c3.9-0.3,5.2,1.1,5.2,6.2v13.2c6.2-12.6,14.5-20,25.3-20c15.2,0,26.6,14,26.6,38.6c0,29.7-16.3,47.1-45.5,47.1
		c-2.3,0-4.4-0.2-6.4-0.3v9.1C237.6,926.6,238.3,928.3,247.7,929.6z M237.6,843.8v56.2c3.1,2,6.4,2.9,9.5,2.9c11.7,0,17-13,17-35.2
		c0-19.6-4.1-27.7-13.9-27.7C246.1,840.1,241.1,841.4,237.6,843.8z"/>
	<path fill="#FFFFFF" d="M337.5,929.6v2H296v-2c5.5-1.3,6.8-3.3,6.8-12.9v-72.4c0-9.8-0.3-16.8-7.7-16.8v-2l27.1-2.8
		c3.9-0.3,5.2,1.1,5.2,6.2v13.2c6.2-12.6,14.5-20,25.3-20c15.2,0,26.6,14,26.6,38.6c0,29.7-16.3,47.1-45.5,47.1
		c-2.3,0-4.4-0.2-6.4-0.3v9.1C327.4,926.6,328.1,928.3,337.5,929.6z M327.4,843.8v56.2c3.1,2,6.4,2.9,9.5,2.9c11.7,0,17-13,17-35.2
		c0-19.6-4.1-27.7-13.9-27.7C335.9,840.1,330.9,841.4,327.4,843.8z"/>
	<path fill="#FFFFFF" d="M456.9,884.9l1.3,1c-6.4,14.7-17.3,22-33.1,22c-23.5,0-38.6-15.8-38.6-40.9c0-26.4,16.6-44.8,40.7-44.8
		c18.3,0,30.6,10.6,30.6,26.2l-45,18.6c2.3,16.6,10.3,23.8,25.3,23.8C445.9,890.8,452.3,888.8,456.9,884.9z M412.4,862.4l20.9-9.5
		c0-17.8-3.3-26.4-9.9-26.4c-7.2,0-11.2,10.1-11.2,28.2C412,857.5,412.2,860.1,412.4,862.4z"/>
	<path fill="#FFFFFF" d="M501,904.3v2h-38.3v-2c5.5-1.3,6.8-2.9,6.8-12.9v-71.1c0-9.8-0.3-16.8-7.7-16.8v-2l27.1-2.8
		c3.9-0.3,5.2,1.1,5.2,6.2v86.4C494.2,901,495.5,903,501,904.3z"/>
	<path fill="#FFFFFF" d="M544.7,904.3v2h-38.3v-2c5.5-1.3,6.8-2.9,6.8-12.9v-71.1c0-9.8-0.3-16.8-7.7-16.8v-2l27.1-2.8
		c3.9-0.3,5.2,1.1,5.2,6.2v61.3c13.5-9.6,25.6-22,25.6-33.9c0-5.2-3.4-6.7-11.1-6.7v-2h22.3c4.4,0,7.3,1,7.3,5.2
		c0,6.4-8.3,14.5-21,24.9l15.8,38.8c3.4,8.3,5.2,11.1,9.8,11.6v2h-37v-2c3.7-0.2,4.4-1.3,1.3-10.1l-8.8-25.6
		c-1.5,1.1-2.8,2.3-4.2,3.3v19.6C537.9,901,539.2,903,544.7,904.3z"/>
	<path fill="#FFFFFF" d="M626.5,904.3v2h-38.3v-2c5.5-1.3,6.8-2.9,6.8-12.9v-47.1c0-9.8-0.3-16.8-7.7-16.8v-2l26.6-2.8
		c4.4-0.5,5.7,1.6,5.7,6.2v18.4c6.4-14.5,13.7-24.9,24.1-24.9c0.8,0,1.6,0,2.4,0.2l-0.8,26.1c-2.4-0.3-5.9-0.5-9-0.5
		c-7.3,0-11.7,0.8-16.8,2.6v40.6C619.7,901,621,903,626.5,904.3z"/>
	<path fill="#FFFFFF" d="M689.5,904.3v2h-38.3v-2c5.5-1.3,6.8-2.9,6.8-12.9v-47.1c0-9.8-0.3-16.8-7.7-16.8v-2l27.1-2.8
		c3.9-0.3,5.2,1.1,5.2,6.2v62.4C682.6,901,683.9,903,689.5,904.3z M669.6,782.4c8.3,0,15.3,7,15.3,15.8c0,8.8-7,15.8-15.3,15.8
		c-8.6,0-15.5-7-15.5-15.8C654.1,789.4,660.9,782.4,669.6,782.4z"/>
	<path fill="#FFFFFF" d="M770.5,886.4c2.1,6.2,2.8,10.8,2.8,14.3c0,19.7-19.6,32.4-47.9,32.4c-10.3,0-20.9-1.6-26.9-4.1l3.3-22.7
		c16.1,6.7,24.1,8.5,36.8,8.5c18.1,0,28.9-3.6,28.9-9.6c0-5.1-7.3-13-20.7-22.7c-6.2,12.2-14.2,18.3-24.6,18.3
		c-15.8,0-26.1-14.2-26.1-35.5c0-27.5,17.3-43.2,45.3-43.2c11.2,0,21.7,2.6,29.2,7V886.4z M735.7,882.9c3.7,0,7.7-0.8,10.1-2v-52.2
		c-2.6-1.1-5.2-1.8-7.7-1.8c-10.8,0-16.8,11.7-16.8,33.3C721.4,876.9,725,882.9,735.7,882.9z"/>
	<path fill="#FFFFFF" d="M852.5,884.9l1.3,1c-6.4,14.7-17.3,22-33.1,22c-23.5,0-38.6-15.8-38.6-40.9c0-26.4,16.6-44.8,40.7-44.8
		c18.3,0,30.6,10.6,30.6,26.2l-45,18.6c2.3,16.6,10.3,23.8,25.3,23.8C841.5,890.8,847.9,888.8,852.5,884.9z M808,862.4l20.9-9.5
		c0-17.8-3.3-26.4-9.9-26.4c-7.2,0-11.2,10.1-11.2,28.2C807.6,857.5,807.8,860.1,808,862.4z"/>
	<path fill="#FFFFFF" d="M913.2,886.7l1.1,1.3c-4.7,13.5-12.9,19.9-25.4,19.9c-15,0-22.5-9-22.5-26.7v-51.8h-9.6v-2.8
		c17.1-2.1,30.2-11.1,31.9-24h2.3v21.2h23l-0.8,5.5h-22.2v50.4c0,7.2,3.6,10.8,10.8,10.8C906.2,890.4,910.3,889.1,913.2,886.7z"/>
	<path fill="#FFFFFF" d="M952.9,837.3c0,9.1-7,15.6-16.6,15.6c-9.6,0-16.6-6.5-16.6-15.6c0-9.3,6.8-15.6,16.6-15.6
		C946,821.7,952.9,828,952.9,837.3z M952.9,892.2c0,9.1-7,15.6-16.6,15.6c-9.6,0-16.6-6.5-16.6-15.6c0-9.3,6.8-15.6,16.6-15.6
		C946,876.6,952.9,882.9,952.9,892.2z"/>
</g>
<g>
	<path fill="#FFFFFF" d="M1029,888l24.8-69.6c1.1-3.3,1.6-5.9,1.6-8.1c0-5.1-2.6-7.5-7.3-8l0.2-2h57.2l-0.2,2
		c-8.8,1.5-9.8,2.9-8.8,13l5.5,79.4c0.5,6.8,2,8.5,9.6,9.6l-0.3,2h-46l0.2-2c8.3-1.5,11.6-4.1,11.6-11.4l-1.5-22.5h-33.1l-5.7,17.1
		c-0.8,2.3-1.1,4.2-1.1,6c0,6.2,4.4,9.8,13.2,10.8l-0.2,2h-34.1l0.3-2C1022.8,903,1025.6,897.8,1029,888z M1075.1,863.1l-3.6-57
		h-7.5l-19.1,57H1075.1z"/>
	<path fill="#FFFFFF" d="M1122.9,836.2l-0.7-1.8c9.8-8,17.8-12.2,23.8-12.2c6,0,8.6,4.1,7.7,11.9l-2.6,19.1
		c4.7-10.4,11.7-22.3,22-32.3l8.1,26.6l-30.6,9.3v-0.2l-7,49.7l-23,0.8l10.4-72.9L1122.9,836.2z"/>
	<path fill="#FFFFFF" d="M1231,889.6l0.3,2c-8.1,8.8-19.2,16.3-30,16.3c-10.6,0-18.1-7-15.8-22.2l8.3-56.2h-10.1l0.7-5.2l10.4-0.2
		l7.7-21.7l17.8,0.2l-3.1,21.2h22l-1.8,5.7h-21l-9.3,65.2L1231,889.6z"/>
	<path fill="#FFFFFF" d="M1328.4,802.3l0.3-2h33.1l-0.3,2c-8.8,1.3-9.9,4.6-11.2,14.5l-11.1,89.5l-9.6,1.6l-45.5-80.7h-0.8l-6,62.6
		c-1.1,11.6,2.9,13.2,14.5,14.5l-0.3,2h-32.9l0.3-2c8.8-1.3,10.1-4.6,11.2-14.5l9.5-77.6c0.7-5.9-0.5-8.8-8.1-9.9l0.2-2h25.6
		l39.9,71.1h0.8l5.1-54.6C1343.9,807,1340.5,803.6,1328.4,802.3z"/>
	<path fill="#FFFFFF" d="M1391.9,907.9c-19.1,0-35-15-35-37.7c0-24.6,18.6-48.1,43.2-48.1c19.2,0,34.6,14.5,34.6,37.3
		C1434.6,884.9,1415.6,907.9,1391.9,907.9z M1400.7,902.8c5.7-5.4,9-22.2,9-39c0-24.3-6.8-37.5-15.8-37.5c-8.3,8-12.1,23.8-12.1,39
		C1381.7,889,1391,902.8,1400.7,902.8z"/>
	<path fill="#FFFFFF" d="M1521.4,893.1l0.5,1.8c-10.4,9.9-16.5,13-23,13c-7.5,0-9.9-4.2-8.6-11.9l2.4-17.9
		c-13.9,21.2-24.6,29.8-34.7,29.8c-11.4,0-16-11.4-13-29.8l7.2-44.3l-8.6,3.3l-0.5-1.8c10.4-9.9,16.5-13,23-13
		c7.5,0,10.1,4.2,8.8,11.9l-5.5,34.6c-2.3,14-2,19.9,4.4,19.9c5.4,0,11.6-3.9,19.7-14.5l7-50.2l23-0.8l-10.6,73.3L1521.4,893.1z"/>
	<path fill="#FFFFFF" d="M1548.8,907.1l-10.8-74.3l-8.5,2.3l-0.5-1.8c8.5-7.5,14.7-11.1,21.2-11.1c7.5,0,9.9,4.2,10.9,11.9l9.1,67.6
		l21.7-71.4l-13.4-4.6l0.3-2h23.8c4.4,0,5.9,4.9,4.4,8l-35.2,74.5L1548.8,907.1z"/>
	<path fill="#FFFFFF" d="M1671.2,889.6c-9.5,11.7-20.5,18.3-33.6,18.3c-18.1,0-30.6-12.7-30.6-34.9c0-26.6,20-50.9,42.7-50.9
		c16.6,0,28.7,13.2,27.4,30.3l-45.1,17.4c0.5,16,9,22.5,19.7,22.5c6.5,0,12.1-1.5,19.1-4.7L1671.2,889.6z M1632,865.8l22.5-9.3
		c1.5-12.9-3.4-28.8-9.5-29.8C1638.3,831.4,1632.6,848.6,1632,865.8z"/>
	<path fill="#FFFFFF" d="M1733.3,907.9c-7,0-9.6-3.7-8.5-11.9l1.8-12.9c-8,17.3-16.1,24.8-25.4,24.8c-12.7,0-20.9-12.4-20.9-32.6
		c0-31.1,19.1-53.1,48.4-53.1c9,0,19.4,2,28.2,5.2l-9.1,68.9l8-3.3l0.5,1.8C1746.4,904.5,1740.2,907.9,1733.3,907.9z M1713.3,890.3
		c3.4,0,9.3-5.1,14.2-12.4l5.7-41.4l-13.4-9.6c-7.7,7.2-14.5,24.8-14.5,41.7C1705.3,880,1708.2,890.3,1713.3,890.3z"/>
	<path fill="#FFFFFF" d="M1845,893.1l0.5,1.8c-10.4,9.9-16.5,13-23,13c-7.5,0-9.9-4.2-8.6-11.9l2.4-17.9
		c-13.9,21.2-24.6,29.8-34.7,29.8c-11.4,0-16-11.4-13-29.8l7.2-44.3l-8.6,3.3l-0.5-1.8c10.4-9.9,16.5-13,23-13
		c7.5,0,10.1,4.2,8.8,11.9l-5.5,34.6c-2.3,14-2,19.9,4.4,19.9c5.4,0,11.6-3.9,19.7-14.5l7-50.2l23-0.8l-10.6,73.3L1845,893.1z"/>
</g>
<g>
	<path fill="#FFFFFF" d="M719.7,128.9V99h12.1c8.9,0,15,5.1,15,15c0,10-6.2,15-15,15H719.7z M731.5,125.5c7,0,11.5-4.2,11.5-11.6
		c0-7-4.1-11.6-11.5-11.6h-8v23.2H731.5z"/>
	<path fill="#FFFFFF" d="M774.2,99v3.4h-16.7v7.1h16.2v3.4h-16.2v12.7h17.6v3.4h-21.4V99H774.2z"/>
	<path fill="#FFFFFF" d="M786,99v26.5h16.3v3.4h-20.1V99H786z"/>
	<path fill="#FFFFFF" d="M815,125.6h0.3l9.8-26.6h3.9l-10.8,29.9H812L800.8,99h4.1L815,125.6z"/>
	<path fill="#FFFFFF" d="M830,128.9l8.6-29.9h9.6l8.7,29.9h-4l-2.3-8h-14.4l-2.3,8H830z M845.2,102.4h-3.7l-4.3,15.2h12.4
		L845.2,102.4z"/>
	<path fill="#FFFFFF" d="M862.6,128.9V99h12.1c7.5,0,9.6,4,9.6,8.5c0,4.5-2.2,7.1-5.9,8.4l6.9,13.1h-4.5l-6.3-12.2l-8.1,0.9v11.3
		H862.6z M873.5,113.3c4.7-0.5,6.8-1.9,6.8-5.8c0-3.3-1.5-5.2-5.8-5.2h-8.1v11.8L873.5,113.3z"/>
	<path fill="#FFFFFF" d="M891.7,128.9V99h12.1c8.9,0,15,5.1,15,15c0,10-6.2,15-15,15H891.7z M903.5,125.5c7,0,11.5-4.2,11.5-11.6
		c0-7-4.1-11.6-11.5-11.6h-8v23.2H903.5z"/>
	<path fill="#FFFFFF" d="M951.6,121.1c0-7.2-16.8-4.4-16.8-14.4c0-5.1,4.4-8.2,10.5-8.2c2.7,0,5.7,0.2,8.7,1.3l-0.5,3.4
		c-2.5-0.8-5.2-1.2-8.1-1.2c-3.9,0-6.7,1.5-6.7,4.6c0,6.7,16.9,3.9,16.9,14.5c0,5.9-5.5,8.5-11.7,8.5c-2.9,0-6-0.3-8.8-1.3l0.5-3.4
		c2,0.8,5.2,1.3,8.4,1.3C947.5,126,951.6,124.8,951.6,121.1z"/>
	<path fill="#FFFFFF" d="M982.5,99v3.4h-16.7v7.1H982v3.4h-16.2v12.7h17.6v3.4h-21.4V99H982.5z"/>
	<path fill="#FFFFFF" d="M990.4,128.9V99h12.1c7.5,0,9.6,4,9.6,8.5c0,4.5-2.2,7.1-5.9,8.4l6.9,13.1h-4.5l-6.3-12.2l-8.1,0.9v11.3
		H990.4z M1001.3,113.3c4.7-0.5,6.8-1.9,6.8-5.8c0-3.3-1.5-5.2-5.8-5.2h-8.1v11.8L1001.3,113.3z"/>
	<path fill="#FFFFFF" d="M1023.3,99v29.9h-3.8V99H1023.3z"/>
	<path fill="#FFFFFF" d="M1052.4,99v3.4h-16.7v7.1h16.2v3.4h-16.2v16.1h-3.8V99H1052.4z"/>
	<path fill="#FFFFFF" d="M1069.5,128.9V99h12.1c8.9,0,15,5.1,15,15c0,10-6.2,15-15,15H1069.5z M1081.3,125.5c7,0,11.5-4.2,11.5-11.6
		c0-7-4.1-11.6-11.5-11.6h-8v23.2H1081.3z"/>
	<path fill="#FFFFFF" d="M1107.3,99v29.9h-3.8V99H1107.3z"/>
	<path fill="#FFFFFF" d="M1130.9,121.1c0-7.2-16.8-4.4-16.8-14.4c0-5.1,4.4-8.2,10.5-8.2c2.7,0,5.7,0.2,8.7,1.3l-0.5,3.4
		c-2.5-0.8-5.2-1.2-8.1-1.2c-3.9,0-6.7,1.5-6.7,4.6c0,6.7,16.9,3.9,16.9,14.5c0,5.9-5.5,8.5-11.7,8.5c-2.9,0-6-0.3-8.8-1.3l0.5-3.4
		c2,0.8,5.2,1.3,8.4,1.3C1126.8,126,1130.9,124.8,1130.9,121.1z"/>
	<path fill="#FFFFFF" d="M1141.2,128.9V99h10.9c7.4,0,10.5,3.4,10.5,9.4c0,6.2-3.8,9.1-9.9,9.6l-7.7,0.6v10.3H1141.2z M1151.5,114.8
		c4.6-0.3,7.1-1.8,7.1-6.2c0-4.6-2.4-6.2-6.7-6.2h-6.9v12.8L1151.5,114.8z"/>
	<path fill="#FFFFFF" d="M1172.5,99v26.5h16.3v3.4h-20.1V99H1172.5z"/>
	<path fill="#FFFFFF" d="M1191,128.9l8.6-29.9h9.6l8.7,29.9h-4l-2.3-8h-14.4l-2.3,8H1191z M1206.2,102.4h-3.7l-4.3,15.2h12.4
		L1206.2,102.4z"/>
	<path fill="#FFFFFF" d="M1230.6,114.2h0.3l8.4-15.2h4l-10.6,19.2v10.7h-3.8v-10.8L1217.5,99h4.1L1230.6,114.2z"/>
</g>
<g>
	<path fill="#FFFFFF" d="M118.6,1277.1l20.2-71.4c2.9-10.1,1.6-12.4-9.1-13v-4.2h55.9v4.2c-10.1,0.7-10.9,2.9-8.3,13l19.6,73
		c2.3,7.8,3.9,10.8,12.1,11.4v4.2h-38.5v-4.2c11.7-0.7,14.5-2.9,12.6-10.4l-4.6-17.3h-46.8l-4.1,15.6c-2,7.5,0.8,11.2,13.5,12.1v4.2
		h-35v-4.2C114.1,1288.9,116.4,1285,118.6,1277.1z M176.7,1255.3l-15.5-59.7h-11.9l-15.6,59.7H176.7z"/>
	<path fill="#FFFFFF" d="M251.2,1296.1c-9,0-18.7-2-28.2-7.8v-81.8c0-10.1-1.8-13.4-12.1-13.4v-3.6l19.2-2.8
		c4.4-0.7,5.9,1.1,5.9,6.2v30.6c8.5-7.8,18.1-13.2,28.9-13.2c18.3,0,29.3,14,29.3,38.8C294.2,1279.4,277.6,1296.1,251.2,1296.1z
		 M236,1228.2v56.9c4.6,2.9,10.4,4.6,16.3,4.6c21.5,0,28-15.5,28-37.3c0-22.5-6.8-31.1-20.9-31.1
		C251.8,1221.2,243.2,1223.5,236,1228.2z"/>
	<path fill="#FFFFFF" d="M377.2,1279.8l1.3,3.6c-7.5,7.5-18.6,12.7-30.8,12.7c-24.8,0-39.6-16-39.6-42.1c0-25.9,15.5-43.7,37.8-43.7
		c18.9,0,31.9,12.4,32.3,29.3l-55.3,21.5c3.4,17,14.7,24.1,30.8,24.1C360.9,1285.3,369.7,1283.3,377.2,1279.8z M322.2,1255.8
		L363,1240c-0.5-13.4-7-23.5-18.9-23.5c-13.5,0-22.2,12.1-22.2,33.1C321.9,1251.7,322.1,1253.8,322.2,1255.8z"/>
	<path fill="#FFFFFF" d="M425.1,1290.8v3.6h-35.9v-3.6c10.1-1.6,11.4-2.9,11.4-14.7v-69.1c0-9.8-2.6-13.7-13.2-13.7v-3.6l20-2.8
		c4.6-0.7,6.2,1.1,6.2,6.2v83C413.7,1287.9,415,1289.2,425.1,1290.8z"/>
	<path fill="#FFFFFF" d="M472.2,1277.1l20.2-71.4c2.9-10.1,1.6-12.4-9.1-13v-4.2h55.9v4.2c-10.1,0.7-10.9,2.9-8.3,13l19.6,73
		c2.3,7.8,3.9,10.8,12.1,11.4v4.2H524v-4.2c11.7-0.7,14.5-2.9,12.6-10.4l-4.6-17.3h-46.8l-4.1,15.6c-2,7.5,0.8,11.2,13.5,12.1v4.2
		h-35v-4.2C467.6,1288.9,469.9,1285,472.2,1277.1z M530.2,1255.3l-15.5-59.7h-11.9l-15.6,59.7H530.2z"/>
	<path fill="#FFFFFF" d="M610.1,1290.8v3.6H570v-3.6c10.3-1.6,11.4-2.9,11.4-14.7v-45.3c0-9.8-2.4-13.4-13-13.4v-3.7l20-2.8
		c4.4-0.7,6.2,1.1,6.2,6.2v9.3c7-9.8,14.7-16.1,25.3-16.1c1.3,0,2.8,0,4.2,0.2l-1,14.5c-3.6-0.7-5.9-0.7-8.5-0.7
		c-8.1,0-14.2,1.5-20,6.7v45.1C594.6,1287.9,596.7,1289.2,610.1,1290.8z"/>
	<path fill="#FFFFFF" d="M645.6,1248.8c0,24.4,11.4,36.5,28.4,36.5c6.8,0,15.3-2,22.5-5.5l1.3,3.6c-8.1,7.8-17.6,12.7-29.2,12.7
		c-21.7,0-36.7-15.8-36.7-41.7c0-26.6,16-44,39.8-44c7.3,0,15.2,1.6,23.8,5.2v26.6h-3.9c-3.4-16.8-10.4-25.4-22.7-25.4
		C654.9,1216.7,645.6,1227.8,645.6,1248.8z"/>
	<path fill="#FFFFFF" d="M744.4,1290.8v3.6h-35.9v-3.6c10.1-1.6,11.4-2.9,11.4-14.7v-69.1c0-9.8-2.6-13.7-13.2-13.7v-3.6l20-2.8
		c4.6-0.7,6.2,1.1,6.2,6.2v31.6c7.5-8.8,18.4-14.5,29.7-14.5c15.2,0,24.4,9.8,24.4,27.4v38.5c0,11.7,1.3,13,11.4,14.7v3.6h-35.9
		v-3.6c10.1-1.6,11.4-2.9,11.4-14.7V1241c0-13-4.9-19.2-18.1-19.2c-8,0-15.5,2.4-23,7.8v46.6C733,1287.9,734.3,1289.2,744.4,1290.8z
		"/>
	<path fill="#FFFFFF" d="M878,1279.8l1.3,3.6c-7.5,7.5-18.6,12.7-30.8,12.7c-24.8,0-39.6-16-39.6-42.1c0-25.9,15.5-43.7,37.8-43.7
		c18.9,0,31.9,12.4,32.3,29.3l-55.3,21.5c3.4,17,14.7,24.1,30.8,24.1C861.7,1285.3,870.5,1283.3,878,1279.8z M823.1,1255.8
		l40.7-15.8c-0.5-13.4-7-23.5-18.9-23.5c-13.5,0-22.2,12.1-22.2,33.1C822.8,1251.7,823,1253.8,823.1,1255.8z"/>
	<path fill="#FFFFFF" d="M931.5,1290.8v3.6h-40.1v-3.6c10.3-1.6,11.4-2.9,11.4-14.7v-45.3c0-9.8-2.4-13.4-13-13.4v-3.7l20-2.8
		c4.4-0.7,6.2,1.1,6.2,6.2v9.3c7-9.8,14.7-16.1,25.3-16.1c1.3,0,2.8,0,4.2,0.2l-1,14.5c-3.6-0.7-5.9-0.7-8.5-0.7
		c-8.1,0-14.2,1.5-20,6.7v45.1C916,1287.9,918.1,1289.2,931.5,1290.8z"/>
</g>
<g>
	<path fill="#FFFFFF" d="M1026.2,1290.8l3.3-26.4h4.2c0.3,16,9,24.6,22.7,24.6c15.2,0,25.6-10.1,25.6-22.3c0-8.3-5.2-13.5-20.9-21
		c-19.6-9.5-27.1-17.1-27.1-28.9c0-17,16.3-30,38.6-30c8.5,0,18.3,1.8,27.2,5.2l-3.3,26.4h-4.2c-0.3-16.1-8.3-24.4-21.5-24.4
		c-14,0-22.8,8.8-22.8,19.6c0,8.1,5.1,12.9,20.2,20c19.9,9.5,27.7,17.8,27.7,30.5c0,18.4-17,31.9-41.4,31.9
		C1045.5,1296.1,1035.2,1294.1,1026.2,1290.8z"/>
	<path fill="#FFFFFF" d="M1189.2,1281.9l0.7,3.3c-9.6,8.3-15,10.8-19.7,10.8c-6.4,0-8.6-4.4-8-9.9l2.3-16.6
		c-13,16.3-26.6,26.6-36.2,26.6c-9.1,0-13.7-9-11.4-22.8l8.5-53.6l-14,2.9l-0.7-3.4c8.1-6,15.2-8.6,19.9-8.6c6,0,8.6,4.6,7.8,9.8
		l-8,49.6c-1.8,10.8-0.3,14.3,5.5,14.3c6.8,0,16-6.7,29.7-21.8l7-50.2l13-0.8l-10.4,75.1L1189.2,1281.9z"/>
	<path fill="#FFFFFF" d="M1202.3,1222.4l-0.7-3.4c8.1-6,15-8.6,19.7-8.6c6,0,8.6,4.6,8,9.8l-1.8,13.4c9.3-15,19.6-23.1,29.2-23.1
		c12.1,0,19.2,12.7,19.2,32.6c0,32.3-18.9,53.1-46.9,53.1c-3.4,0-6.7-0.3-10.1-0.8l-3.4,24.4l-12.9,0.8l13.7-101.1L1202.3,1222.4z
		 M1226.2,1242.1l-5.9,42.1l19.7,6.2c12.1-3.7,22.5-18.7,22.5-44.3c0-16.3-3.9-24.9-11.9-24.9
		C1243.5,1221.1,1235.2,1228.2,1226.2,1242.1z"/>
	<path fill="#FFFFFF" d="M1345.9,1283.5c-8.8,7.5-18.7,12.6-29.2,12.6c-16.8,0-28.2-12.2-28.2-34.9c0-28.4,18.1-51.2,38.6-50.9
		c15.8,0.2,26.7,15,25.9,31l-51.3,16.3c0,0,0,0.3,0,0.7c0,18.1,7.2,27.4,20.9,27.4c6.2,0,13.5-2,22-5.4L1345.9,1283.5z M1302,1251.7
		l37.7-12.1c-1.1-11.6-8-22-16.6-24.1C1313.3,1215.5,1303.8,1232.6,1302,1251.7z"/>
	<path fill="#FFFFFF" d="M1362.8,1222.4l-0.7-3.4c8.1-6,15.2-8.6,19.9-8.6c6,0,8.5,4.6,7.8,9.8l-2.4,18.4
		c6.4-10.3,15-20.9,26.1-28.9l6.5,12.1l-33.1,20.9l-6.8,51.8l-13,0.8l9.9-75.8L1362.8,1222.4z"/>
	<path fill="#FFFFFF" d="M1479.4,1236.6c2-10.9,0.3-14.2-5.5-14.2c-6.7,0-16,6.5-29.5,21.8l-6.8,50.2l-13,0.8l13.5-99.3l-14.2,0.3
		l-0.5-3.3c8.6-4.2,15-6.2,19.6-6.2c6.2,0,8.5,4.6,7.8,9.8l-5.4,40.4c13.2-16.5,26.6-26.7,36.3-26.7c9,0,13.4,9.1,11.4,22.8l-8.6,53
		l13.9-4.2l1,3.3c-9.8,8.3-15.2,10.8-19.9,10.8c-6.4,0-8.8-4.4-8-9.9L1479.4,1236.6z"/>
	<path fill="#FFFFFF" d="M1568.7,1283.5c-8.8,7.5-18.7,12.6-29.2,12.6c-16.8,0-28.2-12.2-28.2-34.9c0-28.4,18.1-51.2,38.6-50.9
		c15.8,0.2,26.7,15,25.9,31l-51.3,16.3c0,0,0,0.3,0,0.7c0,18.1,7.2,27.4,20.9,27.4c6.2,0,13.5-2,22-5.4L1568.7,1283.5z
		 M1524.9,1251.7l37.7-12.1c-1.1-11.6-8-22-16.6-24.1C1536.1,1215.5,1526.6,1232.6,1524.9,1251.7z"/>
	<path fill="#FFFFFF" d="M1585.7,1222.4l-0.7-3.4c8.1-6,15.2-8.6,19.9-8.6c6,0,8.5,4.6,7.8,9.8l-2.4,18.4
		c6.4-10.3,15-20.9,26.1-28.9l6.5,12.1l-33.1,20.9l-6.8,51.8l-13,0.8l9.9-75.8L1585.7,1222.4z"/>
	<path fill="#FFFFFF" d="M1670.9,1296.1c-17.6,0-26.7-12.7-26.7-33.7c0-31.1,19.7-52,43-52c18.6,0,26.7,14.3,26.7,33.7
		C1713.9,1275.2,1695.5,1296.1,1670.9,1296.1z M1688.5,1286.8c7.2-7.3,11.9-23,11.9-39c0-21.2-5.4-36-29.5-28.7
		c-8.3,6.2-13.2,21.8-13.2,39.4C1657.7,1280.2,1662.6,1295.7,1688.5,1286.8z"/>
	<path fill="#FFFFFF" d="M1783.9,1283.5c-8.8,7.5-18.7,12.6-29.2,12.6c-16.8,0-28.2-12.2-28.2-34.9c0-28.4,18.1-51.2,38.6-50.9
		c15.8,0.2,26.7,15,25.9,31l-51.3,16.3c0,0,0,0.3,0,0.7c0,18.1,7.2,27.4,20.9,27.4c6.2,0,13.5-2,22-5.4L1783.9,1283.5z M1740,1251.7
		l37.7-12.1c-1.1-11.6-8-22-16.6-24.1C1751.3,1215.5,1741.8,1232.6,1740,1251.7z"/>
	<path fill="#FFFFFF" d="M1839.8,1276.5c0-21.7-34.7-22.2-34.7-43.8c0-12.9,11.9-22.3,30.5-22.3c7.5,0,13.5,1.1,21.8,4.1l-2.4,13.9
		l-24.8-12.9c-6.5,0-12.1,5.7-12.1,12.9c0,16.6,35.4,21,35.4,44.3c0,13-10.6,23.5-32.1,23.5c-8.2,0-16.6-1.5-23.8-4.7l2.3-13.4
		l25.1,13C1835.9,1291.3,1839.8,1284.3,1839.8,1276.5z"/>
</g>
<g>
	<path fill="#FFFFFF" d="M110.8,1378.3h50.9c32.8,0,51.2,16.6,51.2,48.9c0,34.2-20.5,57-51.2,57h-50.9v-5.2
		c10.1-1.5,12.1-3.3,12.1-12.9v-69.8c0-9.6-2-11.4-12.1-12.9V1378.3z M140.8,1387.3v88h19.7c22.2,0,33.7-16.8,33.7-43.7
		c0-27.1-11.7-44.3-33.7-44.3H140.8z"/>
	<path fill="#FFFFFF" d="M296.5,1467.5l1.5,4.6c-7.8,8.6-19.2,13.9-32.4,13.9c-25.1,0-40.4-15.6-40.4-41.2
		c0-26.2,16.5-44.5,40.1-44.5c19.6,0,32.8,12.4,32.9,30.2L245,1451c3.4,15.2,13.9,21.7,29.5,21.5
		C281.8,1472.5,289.5,1470.9,296.5,1467.5z M244,1444.7l34.9-14c-0.3-13.5-6-22.5-16.3-22.5c-11.7,0-18.9,10.8-18.9,29.8
		C243.7,1440.3,243.8,1442.6,244,1444.7z"/>
	<path fill="#FFFFFF" d="M380.1,1467.5l1.5,4.6c-7.8,8.6-19.2,13.9-32.4,13.9c-25.1,0-40.4-15.6-40.4-41.2
		c0-26.2,16.5-44.5,40.1-44.5c19.6,0,32.8,12.4,32.9,30.2l-53.1,20.7c3.4,15.2,13.9,21.7,29.5,21.5
		C365.4,1472.5,373.1,1470.9,380.1,1467.5z M327.6,1444.7l34.9-14c-0.3-13.5-6-22.5-16.3-22.5c-11.7,0-18.9,10.8-18.9,29.8
		C327.3,1440.3,327.4,1442.6,327.6,1444.7z"/>
	<path fill="#FFFFFF" d="M433.9,1505v4.6h-43v-4.6c9.6-1.3,10.9-2.9,10.9-14v-68.6c0-9.8-3.3-14.2-12.7-14.2v-4.6l24.3-2.8
		c4.4-0.5,6,1.1,6,6.2v7.8c8.1-9,17.1-14.7,28.2-14.7c17.6,0,29.3,13.5,29.3,38.6c0,30-16.6,47.1-45.5,47.1c-3.7,0-7.8-0.3-12.1-1.3
		v6.4C419.4,1502,421.7,1503.7,433.9,1505z M419.4,1420.5v53.1c4.9,2.8,9.8,4.1,14.7,4.1c18.1,0,24.4-13.7,24.4-34.4
		c0-21.2-6.4-29-18.7-29C432.9,1414.4,425.6,1416.6,419.4,1420.5z"/>
	<path fill="#FFFFFF" d="M540.8,1470.1l1.6,4.9c-6.4,6.8-14,10.9-23.6,10.9c-14.3,0-21.5-7.8-21.5-25.4v-50.4H486v-5.4
		c13.9-3.1,20.9-9.6,23.1-23.8h5.7v20.9h26.7l-0.8,8.3h-25.9v49.2c0,9.8,3.9,13.7,13,13.7C532.3,1473,536.1,1472.1,540.8,1470.1z"/>
	<path fill="#FFFFFF" d="M587.6,1479.7v4.6h-39.4v-4.6c9.5-1.5,10.8-2.9,10.8-14v-67.3c0-9.8-2.4-14.2-12.6-14.2v-4.6l24.3-2.8
		c4.4-0.5,6,1.1,6,6.2v32.8c7.7-9.8,18.4-15.6,30-15.6c15.2,0,24.6,10.1,24.6,27.7v37.8c0,10.9,1.5,12.6,10.9,14v4.6h-39.4v-4.6
		c9.5-1.5,10.8-2.9,10.8-14v-31.9c0-13.2-4.7-19.2-16.6-19.2c-7.2,0-14,2.3-20.2,6.8v44.3C576.7,1476.6,578,1478.2,587.6,1479.7z"/>
	<path fill="#FFFFFF" d="M693,1479.7v4.6h-42.9v-4.6c9.6-1.5,10.9-2.9,10.9-14v-43.4c0-9.8-2.6-14.2-12.7-14.2v-4.6l24.3-2.8
		c4.4-0.5,6.2,1.3,6.2,6.2v11.4c6.8-10.8,15-18.3,25.4-18.3c1.1,0,2.6,0,3.9,0.2l-0.8,19.1c-3.4-0.5-6.4-0.7-9.3-0.7
		c-7.7,0-13.7,1.1-19.2,5.5v41.4C678.9,1476.6,680.8,1478.2,693,1479.7z"/>
	<path fill="#FFFFFF" d="M756.9,1400.2c23.5,0,40.1,15.2,40.1,41.2c0,25.9-16.8,44.5-42.2,44.5c-23.6,0-39.9-14.7-39.9-40.7
		C714.9,1419.6,730.9,1400.2,756.9,1400.2z M756.3,1477.8c14.5,0,21.5-13.4,21.5-33.9c0-23.6-9.3-35.5-22.3-35.5
		c-14.2,0-21.5,14.2-21.5,35C734,1466.5,743.1,1477.8,756.3,1477.8z"/>
	<path fill="#FFFFFF" d="M881.1,1476.3c1.8,0,4.1-0.7,5.4-1.3l-0.3,5.7c-3.4,3.4-8.8,5.2-14.2,5.2c-8.3,0-13.9-5.1-13.9-15.2v-1.3
		c-7.5,9.8-17.4,16.5-28.8,16.5c-12.2,0-20.7-7.7-20.7-20.5c0-13.7,9.5-21,30.3-26.9l19.2-5.2v-4.4c0-9.6-5.4-14-18.6-14
		c-7.7,0-16.8,1.5-26.4,4.6l-1.5-14c10.6-3.6,20.7-5.2,30.5-5.2c22.3,0,33.6,8.6,33.6,25.8v44.8
		C875.8,1474.3,877.6,1476.3,881.1,1476.3z M838.6,1472.4c6.5,0,13.7-2.9,19.6-8.8V1439l-14.8,4.4c-10.4,3.3-16.5,7.7-16.5,17
		C826.9,1467.7,830.9,1472.4,838.6,1472.4z"/>
	<path fill="#FFFFFF" d="M947,1470.1l1.6,4.9c-6.4,6.8-14,10.9-23.6,10.9c-14.3,0-21.5-7.8-21.5-25.4v-50.4h-11.2v-5.4
		c13.9-3.1,20.9-9.6,23.1-23.8h5.7v20.9h26.7l-0.8,8.3h-25.9v49.2c0,9.8,3.9,13.7,13,13.7C938.5,1473,942.3,1472.1,947,1470.1z"/>
</g>
<g>
	<path fill="#FFFFFF" d="M1033.3,1470.1c19.2,0,23.3-4.2,15.8-16.6l7-57c1.1-9.1-0.2-10.9-15.6-12.4l0.7-5.2h46.1l-0.7,5.2
		c-9.1,1.3-11.6,3.3-12.7,12.2l-7,57.5c-3.1,24.4-30.3,32.9-48.1,32.9l0.5-17.1C1024.5,1469.9,1029.2,1470.1,1033.3,1470.1z"/>
	<path fill="#FFFFFF" d="M1133.8,1463.4c-9,15-18.7,23-28.2,23c-12.7,0-20.2-12.7-20.2-32.6c0-32.1,20-53.1,48.4-53.1
		c8,0,16.3,1.5,25.1,4.4l-9.1,68.9l12.9-3.3l0.8,3.4c-9.9,8.6-16.3,12.1-22.3,12.1c-6.5,0-9.9-4.1-9-10.6L1133.8,1463.4z
		 M1114.3,1472.7c5.7,0,13.2-6.5,20.9-18.1l5.5-39.4l-17-7.3c-11.6,4.7-20,18.7-20,41.2C1103.7,1463.4,1107.1,1472.7,1114.3,1472.7z
		"/>
	<path fill="#FFFFFF" d="M1232.9,1484.8h-64.2l-2.3-6.5l54-69.9l-44.5,10.1l2.4-16.1h60.1l2.4,6.7l-54,70.4l48.1-10.8L1232.9,1484.8
		z"/>
	<path fill="#FFFFFF" d="M1307.3,1484.8H1243l-2.3-6.5l54-69.9l-44.5,10.1l2.4-16.1h60.1l2.4,6.7l-54,70.4l48.1-10.8L1307.3,1484.8z
		"/>
	<path fill="#FFFFFF" d="M1396.1,1479.6l-0.5,5.2h-46.3l0.7-5.2c9.9-1.5,12.1-3.3,13.4-12.9l8.5-69.8c1.1-10.3-0.5-11.4-10.3-12.9
		l0.7-5.2h49.1c20.7,0,32.3,9.9,32.3,27.5c0,20-14.7,35-37.5,37.3l-22.7,2.3l-2.4,20.2C1379.8,1476,1381.7,1478.2,1396.1,1479.6z
		 M1390.5,1387.8l-6,49.2l15.3-1.1c15.2-1,24.8-13.2,24.8-29c0-12.4-6-19.1-18.4-19.1H1390.5z"/>
	<path fill="#FFFFFF" d="M1483.1,1470.7l0.8,3.4c-10.3,9.1-16.6,12.1-22.3,12.1c-6.8,0-9.8-4.4-9-10.6l8.5-63.1l-13,2.1l-0.8-3.4
		c9.3-7.2,16.8-10.6,22.3-10.6c6.5,0,9.5,4.6,8.8,10.6l-8.1,62.8L1483.1,1470.7z M1485.4,1374.4c0,7.3-6.5,13.9-13.7,13.9
		c-5.9,0-10.3-4.4-10.3-10.3c0-7.3,6.7-13.9,13.7-13.9C1481,1364.2,1485.4,1368.6,1485.4,1374.4z"/>
	<path fill="#FFFFFF" d="M1541.8,1463.4c-9,15-18.7,23-28.2,23c-12.7,0-20.2-12.7-20.2-32.6c0-32.1,20-53.1,48.4-53.1
		c8,0,16.3,1.5,25.1,4.4l-9.1,68.9l12.9-3.3l0.8,3.4c-9.9,8.6-16.3,12.1-22.3,12.1c-6.5,0-9.9-4.1-9-10.6L1541.8,1463.4z
		 M1522.2,1472.7c5.7,0,13.2-6.5,20.9-18.1l5.5-39.4l-17-7.3c-11.6,4.7-20,18.7-20,41.2C1511.7,1463.4,1515.1,1472.7,1522.2,1472.7z
		"/>
	<path fill="#FFFFFF" d="M1639.6,1432c2-11.4,0.8-16.1-5.1-16.1c-6.2,0-14.2,5.7-26.2,19.6l-6.7,49.4l-17.3,0.8l9.8-73l-13,2.1
		l-0.8-3.4c9.3-7.2,17-10.6,22.5-10.6c6.4,0,9.5,4.6,8.8,10.6l-2.3,16.6c13.5-17.8,26.4-27.2,36.2-27.2c10.1,0,14.8,9.9,12.2,25.4
		l-8,47.9l13-3.3l0.8,3.4c-10.1,9-16.5,12.1-22.3,12.1c-6.7,0-9.9-4.4-9-10.6L1639.6,1432z"/>
	<path fill="#FFFFFF" d="M1709,1470.7l0.8,3.4c-10.3,9.1-16.6,12.1-22.3,12.1c-6.8,0-9.8-4.4-9-10.6l8.5-63.1l-13,2.1l-0.8-3.4
		c9.3-7.2,16.8-10.6,22.3-10.6c6.5,0,9.5,4.6,8.8,10.6l-8.1,62.8L1709,1470.7z M1711.3,1374.4c0,7.3-6.5,13.9-13.7,13.9
		c-5.9,0-10.3-4.4-10.3-10.3c0-7.3,6.7-13.9,13.7-13.9C1706.9,1364.2,1711.3,1368.6,1711.3,1374.4z"/>
	<path fill="#FFFFFF" d="M1758.3,1467c0-18.6-34.9-22.2-34.9-43.4c0-13.2,12.9-23,32.6-23c8.1,0,16.3,1.5,23.6,4.4l-2.8,17.8
		l-24.6-15.6c-6.8,0-11.7,4.9-11.7,11.1c0,15.3,35,21,35,44c0,13.9-12.2,24.1-33.3,24.1c-8.1,0-18.4-1.6-25.8-4.7l2.8-17.4
		l25.1,15.6C1754,1480,1758.3,1473.8,1758.3,1467z"/>
	<path fill="#FFFFFF" d="M1836.8,1470.6l0.5,3.7c-7.3,6-18.9,12.1-28.2,12.1c-11.6,0-17-6.4-14.7-20.2l8.3-56.4h-12.1l1-6.4
		l12.7-0.8l4.9-21.4l14.2,0.2l-2.9,20.9h25.1l-2,7.5h-24.1l-8.8,64.5L1836.8,1470.6z"/>
</g>
<g>
	<path fill="#FFFFFF" d="M119,1653.9l18.6-65.7c2.9-9.9-0.3-12.9-9.5-13.9v-6.2h63.4v6.2c-9.9,1.1-11.1,2.8-8.5,13l18.3,70.4
		c1.8,7.2,3.6,9.1,12.4,10.1v6.2h-47.8v-6.2c10.1-1.1,14-3.4,12.1-11.1l-3.9-16h-39.1l-3.6,13.5c-2.3,8.5,2.3,12.4,13.9,13.5v6.2
		h-39.6v-6.2C114.2,1666.6,116.4,1663,119,1653.9z M171.6,1630.3l-12.4-51.5h-8l-13.5,51.5H171.6z"/>
	<path fill="#FFFFFF" d="M260.8,1668.8v5.4h-42.7v-5.4c8.8-1.5,10.3-2.9,10.3-13.4v-65.7c0-9.8-2.4-14.8-12.2-14.8v-5.4l28.4-2.8
		c4.6-0.5,6,1.1,6,6.2v82.5C250.5,1665.5,252,1667.3,260.8,1668.8z"/>
	<path fill="#FFFFFF" d="M311.3,1668.8v5.4h-42.9v-5.4c8.8-1.5,10.3-2.9,10.3-13.4v-41.7c0-9.8-2.4-14.8-12.2-14.8v-5.4l28.5-2.8
		c4.4-0.3,6,1.1,6,6.2v9.6c7.8-10.6,17.9-16.5,29-16.5c11.9,0,19.6,6.5,22.3,17.9c7.8-11.6,18.6-17.9,30.2-17.9
		c15.2,0,23.5,10.4,23.5,28.2v37.2c0,10.1,1.3,11.9,10.3,13.4v5.4h-42.9v-5.4c8.8-1.5,10.3-2.9,10.3-13.4v-28.8
		c0-13.5-3.7-19.4-13.9-19.4c-5.9,0-11.7,2-16.6,5.7c0.2,1.8,0.3,3.6,0.3,5.4v37.2c0,10.1,1.3,11.9,9.6,13.4v5.4h-41.6v-5.4
		c8.1-1.5,9.6-2.9,9.6-13.4v-28.8c0-13.5-3.7-19.4-13.9-19.4c-5.9,0-11.6,2-16.3,5.7v42.5C301,1665.5,302.3,1667.3,311.3,1668.8z"/>
	<path fill="#FFFFFF" d="M467.1,1590c24.6,0,41.1,14.8,41.1,40.6c0,26.2-17.8,45.1-44.5,45.1c-24.3,0-40.9-14.7-40.9-40.4
		C422.8,1609.3,439.6,1590,467.1,1590z M465.8,1666c12.7,0,18.6-12.1,18.6-32.1c0-23.1-7.5-34.1-19.1-34.1
		c-12.6,0-18.6,13-18.6,33.1C446.8,1655.6,454.1,1666,465.8,1666z"/>
	<path fill="#FFFFFF" d="M565.6,1590c2.8,0,5.4,0.2,8,0.5v-1.6c0-9.9-3.1-14-13.4-14v-5.4l30.3-2.9c4.1-0.3,5.2,1.6,5.2,6.2v81
		c0,9.9,2.1,13.5,10.4,13.5v5.5l-26.2,2.8c-3.9,0.3-5.5-1.5-5.5-6.2v-9.1c-7.8,9.6-16.1,15.5-27.2,15.5c-17.1,0-29.7-13-29.7-38.5
		C517.5,1607.6,534.3,1590,565.6,1590z M557.4,1658.5c5.5,0,11.2-1.6,16.1-4.4v-51.2c-4.2-2-8.1-2.9-12.2-2.9
		c-15.3,0-20.5,11.7-20.5,31.6C540.8,1651.3,546.3,1658.5,557.4,1658.5z"/>
	<path fill="#FFFFFF" d="M657.5,1590c24.6,0,41.1,14.8,41.1,40.6c0,26.2-17.8,45.1-44.5,45.1c-24.3,0-40.9-14.7-40.9-40.4
		C613.2,1609.3,630,1590,657.5,1590z M656.2,1666c12.7,0,18.6-12.1,18.6-32.1c0-23.1-7.5-34.1-19.1-34.1c-12.6,0-18.6,13-18.6,33.1
		C637.1,1655.6,644.5,1666,656.2,1666z M643.5,1578.6l21.7-30.6l12.9,15.8l-30.6,19.2L643.5,1578.6z"/>
	<path fill="#FFFFFF" d="M757.3,1674.1h-22.7l-23.8-67.8c-2.3-6.4-3.4-8.1-10.8-9.3v-5.4h42.7v5.4c-8.1,1.1-10.3,3.4-8,10.3
		l16.8,50.5h1l14.3-48.9c2.1-7.2,0.5-10.9-10.3-11.9v-5.4h33.1v5.4c-6.8,1.1-8.1,3.1-10.4,9.9L757.3,1674.1z"/>
	<path fill="#FFFFFF" d="M870.2,1664.4c1.8,0,3.6-0.5,4.9-1.1l-0.2,6.7c-3.7,3.7-9.8,5.9-16,5.9c-9.9,0-16-5.5-16-15.8v-0.5
		c-6.5,9.1-16.1,16.3-28.2,16.3s-21.2-7.5-21.2-21c0-13.9,9.8-21,31-26.6l18.4-4.7v-2.8c0-8.5-4.7-12.4-17.1-12.4
		c-8,0-17.8,1.5-27.4,4.2l-1.3-17.3c11.1-3.4,22-5.2,32.1-5.2c23.1,0,35.7,9,35.7,26.2v42.7C865,1662.4,866.8,1664.4,870.2,1664.4z
		 M827.2,1659.3c5.5,0,11.4-2.6,15.8-6.8v-22.3l-12.9,3.6c-8.8,2.4-13.9,6.4-13.9,14.5C816.3,1655.2,820.4,1659.3,827.2,1659.3z"/>
	<path fill="#FFFFFF" d="M927.3,1668.8v5.4h-45.6v-5.4c8.8-1.5,10.3-2.9,10.3-13.4v-41.7c0-9.8-2.4-14.8-12.2-14.8v-5.4l28.4-2.8
		c4.6-0.5,6.2,1.3,6.2,6.2v13.5c7-11.7,15.3-20.2,25.6-20.2c1.1,0,2.6,0,3.7,0.2l-0.8,23.3c-3.1-0.3-6.5-0.7-9.9-0.7
		c-7.2,0-13.4,1-18.6,4.7v37.7C914.2,1665.5,916,1667.3,927.3,1668.8z"/>
</g>
<g>
	<path fill="#FFFFFF" d="M1031,1698.7l-0.8-14.7c16-4.7,29-9.8,39.3-15.5c-0.8,0-1.8,0-2.6,0c-24.3,0-39.8-16-39.8-41.9
		c0-32.9,25.1-59.2,57.2-59.2c26.7,0,45.5,18.6,45.5,44c0,32.1-26.7,57.7-74,72.2l64.4-1l-4.2,20.2L1031,1698.7z M1077.1,1659.5
		c2.3,0,4.6-0.3,6.8-0.8c16.1-13,21.8-28.4,21.8-45.8c0-22.8-9-34.9-23.3-34.9c-18.1,0-31.6,22.2-31.6,48.1
		C1050.9,1648.1,1059.5,1659.5,1077.1,1659.5z"/>
	<path fill="#FFFFFF" d="M1223,1659.7l0.8,3.6c-10.9,9.6-18.1,13.4-24.8,13.4c-7.3,0-11.1-4.6-9.9-11.4l2.3-16.3
		c-14.2,19.4-25.9,27.7-36.2,27.7c-11.2,0-16-10.9-13-28l7.3-43.2l-12.2,2l-0.8-3.6c10.4-9.1,18.1-12.9,24.6-12.9
		c7.3,0,11.2,4.6,10.1,11.4l-6.5,38.3c-2.1,11.7-1.5,17.8,4.7,17.8c5.4,0,12.4-4.7,23.1-17.8l6.7-48.1l21.5-0.8l-10.1,70.3
		L1223,1659.7z"/>
	<path fill="#FFFFFF" d="M1297.3,1661.7c-10.3,9.8-20.7,15-33.1,15c-19.6,0-32.4-12.6-32.4-34.9c0-27.1,20.4-50.9,43.4-50.9
		c17.6,0,30.2,14.3,28.2,32.1l-48.4,18.3c1,14.7,7.8,20.5,20.7,20.5c6.7,0,12.9-1.5,20.5-4.2L1297.3,1661.7z M1254.9,1633.8
		l27.7-11.1c0.3-11.2-5.1-22.3-12.9-23.6C1261.9,1602.5,1255.7,1617.2,1254.9,1633.8z"/>
	<path fill="#FFFFFF" d="M1374.6,1661.7c-10.3,9.8-20.7,15-33.1,15c-19.6,0-32.4-12.6-32.4-34.9c0-27.1,20.4-50.9,43.4-50.9
		c17.6,0,30.2,14.3,28.2,32.1l-48.4,18.3c1,14.7,7.8,20.5,20.7,20.5c6.7,0,12.9-1.5,20.5-4.2L1374.6,1661.7z M1332.2,1633.8
		l27.7-11.1c0.3-11.2-5.1-22.3-12.9-23.6C1339.2,1602.5,1333,1617.2,1332.2,1633.8z"/>
	<path fill="#FFFFFF" d="M1445.6,1626.9c2.1-11.9,1.3-17.9-4.7-17.9c-5.5,0-12.4,4.9-22.8,17.8l-6.7,48.2l-21.4,0.8l9.6-70.3
		l-12.1,1.5l-1-3.6c10.4-8.5,18.6-12.6,25.1-12.6c6.7,0,10.4,4.6,9.6,11.4l-2.3,16.3c14.2-19.4,25.8-27.7,36-27.7
		c11.1,0,16,10.8,13,28l-7.5,43l12.2-2.3l0.8,3.6c-10.9,9.6-18.1,13.4-24.8,13.4c-7.2,0-11.1-4.6-9.9-11.4L1445.6,1626.9z"/>
	<path fill="#FFFFFF" d="M1520.6,1657.4c0-15.6-34.9-22.2-34.9-42.9c0-13.5,13.5-23.6,34.2-23.6c9,0,18.9,1.8,25.4,4.7l-3.1,21.5
		l-24.3-18.3c-7.2,0-11.4,3.7-11.4,9.5c0,13.9,34.7,20.9,34.7,43.5c0,14.7-13.7,24.8-34.4,24.8c-8.5,0-20.2-1.8-27.7-4.7l3.3-21.2
		l25.1,17.9C1515.9,1668.7,1520.6,1663.5,1520.6,1657.4z"/>
	<path fill="#FFFFFF" d="M1576.9,1662l11.9-2.3l1,3.6c-11.1,9.6-18.1,13.4-24.8,13.4c-7.3,0-11.1-4.6-9.9-11.4l11.6-83.1l-12.1,0.8
		l-0.8-3.6c10.4-8,18.6-11.9,24.9-11.9c6.7,0,10.6,4.6,9.6,11.4L1576.9,1662z"/>
	<path fill="#FFFFFF" d="M1654.6,1676.7c-7.2,0-11.1-4.4-9.9-11.4l1.5-10.9c-8.8,14.7-18.4,22.3-27.5,22.3c-12.9,0-21-12.2-21-32.4
		c0-31.5,19.9-53.3,50-53.3c9,0,18.6,1.8,27.7,4.9l-8.8,66.2l11.9-2.3l0.8,3.4C1668.6,1672.7,1661.4,1676.7,1654.6,1676.7z
		 M1629.7,1660.2c4.9,0,11.7-6,17.9-15.3l5.2-37.7l-15.3-7.7c-9.8,5.5-16.8,19.4-16.8,38.5
		C1620.7,1650.9,1623.8,1660.2,1629.7,1660.2z"/>
	<path fill="#FFFFFF" d="M1745.7,1626.9c2.1-11.9,1.3-17.9-4.7-17.9c-5.5,0-12.4,4.9-22.8,17.8l-6.7,48.2l-21.4,0.8l9.6-70.3
		l-12.1,1.5l-1-3.6c10.4-8.5,18.6-12.6,25.1-12.6c6.7,0,10.4,4.6,9.6,11.4l-2.3,16.3c14.2-19.4,25.8-27.7,36-27.7
		c11.1,0,16,10.8,13,28l-7.5,43l12.2-2.3l0.8,3.6c-10.9,9.6-18.1,13.4-24.8,13.4c-7.2,0-11.1-4.6-9.9-11.4L1745.7,1626.9z"/>
	<path fill="#FFFFFF" d="M1863.7,1659.7l0.8,3.4c-10.9,9.8-18.1,13.5-24.8,13.5c-7.3,0-10.9-4.6-9.9-11.4l1.8-12.2
		c-9.1,15.5-18.9,23.6-28.4,23.6c-12.9,0-21.5-12.9-21.5-33.3c0-31.1,19.7-52.5,49.9-52.5c2.8,0,5.7,0.2,8.6,0.5l1.6-11.2l-13.7,1
		l-0.8-3.6c10.3-6.4,19.7-10.1,26.1-10.1c7,0,10.6,4.6,9.6,11.4l-11.4,83.1L1863.7,1659.7z M1814.3,1660.2c4.9,0,12.1-6.2,18.4-16.1
		l5.2-36.3l-16.6-8.1c-9.6,5.5-16.6,19.7-16.6,38.1C1804.7,1650.7,1808.3,1660.2,1814.3,1660.2z"/>
</g>
<g>
	<path fill="#FFFFFF" d="M109.2,1759.4h84.8v30.6h-6.8c-1.1-13.7-9.1-18.9-22.8-18.9h-17.4v29h45.6l-2.1,12.7h-43.5v40.7h20.2
		c11.6,0,21.2-4.6,22.7-22h6.8v33.7h-87.4v-6.8c10.1-1.3,12.1-2.9,12.1-12.9v-66.5c0-9.9-2-11.6-12.1-12.9V1759.4z"/>
	<path fill="#FFFFFF" d="M287.7,1859.3v6h-43.2v-6c6.8,0,7.2-4.2,3.4-9.5l-11.1-16.3l-9.1,14.8c-4.1,6.8-2.4,10.4,6,10.9v6h-31v-6
		c4.6-0.8,6.8-3.9,10.8-9l18.3-24.1l-19.2-28.4c-4.2-5.9-6.8-8.3-10.8-9v-6h42.4v6c-5.9,1-6,4.2-2.3,9.5l9.9,14.7l7.5-13.2
		c4.1-7.2,2.4-10.4-6-10.9v-6h31v6c-4.6,0.8-6.8,3.7-10.8,9l-16.6,22.7l20.2,29.8C281.3,1856.2,283.6,1858.7,287.7,1859.3z"/>
	<path fill="#FFFFFF" d="M362.6,1845.2l1.8,6.2c-8.5,10.4-20.2,15.6-34.7,15.6c-25.8,0-42.1-15.2-42.1-40.1
		c0-26.6,18.4-45.6,43.8-45.6c20.5,0,33.9,12.4,33.9,31.3L316,1832c3.7,12.4,12.7,17.8,27.2,17.8
		C350.9,1849.7,356.6,1848.1,362.6,1845.2z M314.6,1824l25.1-10.6c0-14.2-4.1-21.4-12.1-21.4c-8.8,0-13.4,8.6-13.4,24.8
		C314.2,1819.4,314.4,1821.9,314.6,1824z"/>
	<path fill="#FFFFFF" d="M398.3,1818.9c0,20.4,8.5,30.6,24.8,30.6c6.2,0,13-1.5,18.6-4.2l1.8,6.4c-8,10.1-19.4,15.3-32.3,15.3
		c-24.3,0-39.4-16.3-39.4-40.1c0-26.4,19.2-45.6,45.1-45.6c7.8,0,17.3,1.8,24.3,4.7v27.1h-6c-5.5-13.2-11.4-20.7-20.4-20.5
		C404.9,1792.5,398.3,1801.8,398.3,1818.9z"/>
	<path fill="#FFFFFF" d="M484.9,1828.5c0,14,4.6,19.4,14.3,19.4c5.9,0,11.6-2,15.8-5.1v-38.6c0-10.6-4.2-13.5-14.8-13.5v-6l34.2-2.8
		c4.2-0.3,5.9,1.1,5.9,6.2v56.1c0,9.8,4.1,13.5,14.3,13.5v6l-33.9,2.8c-4.2,0.3-5.7-1.1-5.7-6.2v-10.8c-8,11.1-18.6,17.4-30.5,17.4
		c-15.3,0-24.9-10.4-24.9-28.4v-34.4c0-9.8-4.1-13.5-14.2-13.5v-6l33.6-2.8c4.2-0.3,5.9,1.1,5.9,6.2V1828.5z"/>
	<path fill="#FFFFFF" d="M616.3,1846.5l2.1,6.5c-7.3,9.6-15.8,14-27.2,14c-17.3,0-25.1-8.5-25.1-27.7v-46h-10.8v-6.5
		c15.3-2.6,26.2-11.4,28.4-25.1h7.8v21.2h26.1l-1.3,10.4h-24.8v45.5c0,7,4.1,10.8,12.1,10.8C607.8,1849.6,612.2,1848.4,616.3,1846.5
		z"/>
	<path fill="#FFFFFF" d="M668.8,1859.3v6h-45.1v-6c8.5-1.3,9.9-2.9,9.9-12.9v-40.6c0-9.8-2.4-15.2-11.9-15.2v-6l31.1-2.8
		c4.6-0.3,6,1.1,6,6.2v58.4C658.8,1856.1,660.3,1858,668.8,1859.3z M645.9,1741.5c8.5,0,15.6,7.2,15.6,16s-7.2,15.8-15.6,15.8
		c-8.8,0-16-7-16-15.8S637.1,1741.5,645.9,1741.5z"/>
	<path fill="#FFFFFF" d="M721.1,1781.3c25.1,0,41.7,14.7,41.7,40.1c0,26.6-18.6,45.6-46.3,45.6c-24.8,0-41.6-14.7-41.6-40.4
		C675,1800.5,692.4,1781.3,721.1,1781.3z M719,1855.9c11.6,0,16.6-11.1,16.6-30.8c0-22.8-6-32.8-16.6-32.8
		c-11.6,0-16.8,11.9-16.8,31.6C702.2,1846.1,708.4,1855.9,719,1855.9z"/>
	<path fill="#FFFFFF" d="M815.6,1859.3v6h-45.1v-6c8.5-1.3,9.9-2.9,9.9-12.9v-40.6c0-9.8-2.4-15.2-11.9-15.2v-6l31.1-2.8
		c4.6-0.3,6,1.1,6,6.2v10.6c8.2-11.4,18.6-17.4,30.2-17.4c15.6,0,25.1,10.6,25.1,28.4v36.8c0,9.6,1.6,11.6,10.1,12.9v6h-45.3v-6
		c8.5-1.3,10.1-2.9,10.1-12.9v-26.7c0-13.7-4.7-19.4-14.7-19.4c-5.5,0-11.1,1.6-15.5,5.1v41.1C805.7,1856.1,807.1,1858,815.6,1859.3
		z"/>
	<path fill="#FFFFFF" d="M921.7,1845.3c0-6-5.1-9.1-16-12.6c-19.6-6.4-28-13-28-25.4c0-16.6,14-26.1,37.8-26.1
		c10.3,0,20.7,2,28.2,4.9v24.1h-6c-4.2-12.4-10.8-17.9-21.2-17.9c-7,0-12.7,3.4-12.7,9.5c0,5.5,5.2,8.5,16,11.7
		c19.9,5.7,28,12.7,28,25.9c0,17.6-14.2,27.5-39.1,27.5c-10.8,0-21.7-2-29.8-5.1v-24h6c4.1,11.7,11.1,17.9,21.8,17.9
		C915.9,1855.9,921.7,1851.8,921.7,1845.3z"/>
</g>
<g>
	<path fill="#FFFFFF" d="M1053.3,1816.6c0,24.6,9.6,37.7,26.1,37.7c6.2,0,13.7-1.8,21.2-4.9l1.6,9.1c-10.8,5.9-20.9,8.5-31.3,8.5
		c-27.4,0-44.8-18.3-44.8-47.3c0-34.9,25.3-61.9,59.2-61.9c8.1,0,18.1,1.6,27.7,4.4l-4.1,32.1h-6.7c-2.9-17.9-9.1-24.8-19.7-24.8
		C1064.4,1769.5,1053.3,1789.7,1053.3,1816.6z"/>
	<path fill="#FFFFFF" d="M1148.2,1867c-17.3,0-37.5-12.1-37.5-37.2s19.9-48.6,45-48.6c18.4,0,37.2,11.7,37.2,36.8
		C1192.8,1843.9,1172.8,1867,1148.2,1867z M1156,1856.9c6.5-5.7,10.4-20.2,10.4-34.9c0-19.7-6.5-31-17.3-31
		c-7.8,7.2-12.1,20.9-12.1,34.9C1137.1,1845.2,1144.9,1856.9,1156,1856.9z"/>
	<path fill="#FFFFFF" d="M1289.2,1849.1l0.8,3.6c-11.4,10.3-19.1,14.3-26.4,14.3c-7.5,0-11.7-4.6-10.6-11.9l2.3-16
		c-14.7,20.4-25.6,27.9-36.2,27.9c-11.9,0-16.8-11.4-13.5-29.8l6.8-39.6l-11.7,1.6l-0.7-3.6c11.2-10.3,18.9-14.3,26.2-14.3
		c7.7,0,12.1,4.6,10.8,11.9l-6,34.6c-2.1,12.2-1.6,19.1,4.6,19.1c4.9,0,11.1-3.9,20.9-16.5l6.5-47.4l24.4-0.8l-9.8,68.6
		L1289.2,1849.1z"/>
	<path fill="#FFFFFF" d="M1298.5,1798.9l-1-3.7c11.1-9.3,19.7-13.9,26.7-13.9c6.8,0,11.1,4.6,10.1,11.9l-1.3,10.1
		c8.5-14.5,17.6-22,26.7-22c13,0,22.2,14.5,22.2,35.2c0,30.5-19.2,50.5-50.5,50.5c-2.3,0-4.7-0.2-7.2-0.3l-3.3,24l-24.3,0.8
		l13.2-93.7L1298.5,1798.9z M1331.7,1812.6l-5.1,36.7l14.5,8c8.5-5.9,14.3-20.2,14.3-36c0-12.1-3.3-21.5-8.8-21.5
		C1342.8,1799.7,1336.9,1804.9,1331.7,1812.6z"/>
	<path fill="#FFFFFF" d="M1504.5,1849.1l0.8,3.6c-11.2,10.1-18.9,14.3-26.2,14.3c-7.8,0-11.9-4.6-10.8-11.9l1.6-11.1
		c-9,15.2-18.6,23-28,23c-12.9,0-22.2-12.7-22.2-33.6c0-30.3,19.7-52.2,50.9-52.2c2.8,0,5.5,0.2,8.3,0.5l1.5-9.9l-13,1l-1-3.6
		c11.1-7.2,20.9-11.4,27.7-11.4c7.3,0,11.4,4.6,10.3,11.9l-11.2,81L1504.5,1849.1z M1454.9,1848.6c4.1,0,10.9-5.9,16.3-14.3
		l5.2-34.9l-16-8.3c-8.5,5.9-14.3,20.2-14.3,36C1446.1,1839.1,1449.4,1848.6,1454.9,1848.6z"/>
	<path fill="#FFFFFF" d="M1530.2,1807.2h-10.4l-1.6-47.8h25.4L1530.2,1807.2z"/>
	<path fill="#FFFFFF" d="M1608,1851.2c-10.8,10.6-21.4,15.8-34.6,15.8c-20.5,0-33.9-12.7-33.9-34.9c0-26.7,21.2-50.9,45-50.9
		c18.4,0,31.5,14,29,32.6l-47.4,18.6c1.3,13.4,8.3,18.3,20.7,18.3c6.8,0,12.7-1.3,20-3.9L1608,1851.2z M1565.9,1824.6l24.6-10.8
		c0.8-11.1-4.2-22.5-11.7-23.5C1571.6,1795,1566.6,1808.8,1565.9,1824.6z M1571.3,1770.3l24.9-31.5l13.7,16.8l-34.6,19.4
		L1571.3,1770.3z"/>
	<path fill="#FFFFFF" d="M1672.9,1847.9l0.7,5.2c-10.1,8-19.2,13.9-30,13.9c-14.8,0-22.2-7.7-19.2-25.4l7.2-48.9h-11.1l1.3-8.5
		l11.9-0.7l7.3-22l18.7,0.2l-2.9,21.2h23.8l-2.8,9.8h-22.5l-8.2,58.8L1672.9,1847.9z"/>
	<path fill="#FFFFFF" d="M1735.8,1867c-7.7,0-11.7-4.6-10.6-11.9l1.5-9.9c-8.8,14.5-18.1,21.8-27.1,21.8c-13,0-21.5-11.9-21.5-32.3
		c0-31.1,19.9-53.5,51-53.5c9.6,0,20.2,2,29.5,5.2l-8.6,64.2l11.2-1.6l1,3.6C1750.9,1862.8,1743.3,1867,1735.8,1867z M1712.3,1848.6
		c4.1,0,10.3-5.2,15.6-13l5.2-36.8l-14.3-7.7c-8.5,5.9-14.5,19.9-14.5,36.5C1704.3,1839.3,1707.1,1848.6,1712.3,1848.6z"/>
	<path fill="#FFFFFF" d="M1822.8,1847.9l0.7,5.2c-10.1,8-19.2,13.9-30,13.9c-14.8,0-22.2-7.7-19.2-25.4l7.2-48.9h-11.1l1.3-8.5
		l11.9-0.7l7.3-22l18.7,0.2l-2.9,21.2h23.8l-2.8,9.8h-22.5l-8.2,58.8L1822.8,1847.9z"/>
	<path fill="#FFFFFF" d="M1862.3,1850c0,9.1-8.2,17-17.9,17c-8.3,0-14-5.5-14-13.4c0-9,7.8-17,17.8-17
		C1856.6,1836.7,1862.3,1842.4,1862.3,1850z M1873,1757.8l-18.6,72l-11.1,1l-1.6-71.4L1873,1757.8z"/>
</g>
<g>
	<path fill="#FFFFFF" d="M702,1088v-29.9h12.1c8.9,0,15,5.1,15,15c0,10-6.2,15-15,15H702z M713.9,1084.7c7,0,11.5-4.2,11.5-11.6
		c0-7-4.1-11.6-11.5-11.6h-8v23.2H713.9z"/>
	<path fill="#FFFFFF" d="M756.5,1058.1v3.4h-16.7v7.1H756v3.4h-16.2v12.7h17.6v3.4H736v-29.9H756.5z"/>
	<path fill="#FFFFFF" d="M768.3,1058.1v26.5h16.3v3.4h-20.1v-29.9H768.3z"/>
	<path fill="#FFFFFF" d="M797.3,1084.7h0.3l9.8-26.6h3.9l-10.8,29.9h-6.2l-11.2-29.9h4.1L797.3,1084.7z"/>
	<path fill="#FFFFFF" d="M812.3,1088l8.6-29.9h9.6l8.7,29.9h-4l-2.3-8h-14.4l-2.3,8H812.3z M827.5,1061.5h-3.7l-4.3,15.2h12.4
		L827.5,1061.5z"/>
	<path fill="#FFFFFF" d="M844.9,1088v-29.9H857c7.5,0,9.6,4,9.6,8.5c0,4.5-2.2,7.1-5.9,8.4l6.9,13.1h-4.5l-6.3-12.2l-8.1,0.9v11.3
		H844.9z M855.8,1072.5c4.7-0.5,6.8-1.9,6.8-5.8c0-3.3-1.5-5.2-5.8-5.2h-8.1v11.8L855.8,1072.5z"/>
	<path fill="#FFFFFF" d="M874,1088v-29.9h12.1c8.9,0,15,5.1,15,15c0,10-6.2,15-15,15H874z M885.8,1084.7c7,0,11.5-4.2,11.5-11.6
		c0-7-4.1-11.6-11.5-11.6h-8v23.2H885.8z"/>
	<path fill="#FFFFFF" d="M933.9,1080.2c0-7.2-16.8-4.4-16.8-14.4c0-5.1,4.4-8.2,10.5-8.2c2.7,0,5.7,0.2,8.7,1.3l-0.5,3.4
		c-2.5-0.8-5.2-1.2-8.1-1.2c-3.9,0-6.7,1.5-6.7,4.6c0,6.7,16.9,3.9,16.9,14.5c0,5.9-5.5,8.5-11.7,8.5c-2.9,0-6-0.3-8.8-1.3l0.5-3.4
		c2,0.8,5.2,1.3,8.4,1.3C929.8,1085.2,933.9,1083.9,933.9,1080.2z"/>
	<path fill="#FFFFFF" d="M964.8,1058.1v3.4h-16.7v7.1h16.2v3.4h-16.2v12.7h17.6v3.4h-21.4v-29.9H964.8z"/>
	<path fill="#FFFFFF" d="M972.7,1088v-29.9h12.1c7.5,0,9.6,4,9.6,8.5c0,4.5-2.2,7.1-5.9,8.4l6.9,13.1H991l-6.3-12.2l-8.1,0.9v11.3
		H972.7z M983.6,1072.5c4.7-0.5,6.8-1.9,6.8-5.8c0-3.3-1.5-5.2-5.8-5.2h-8.1v11.8L983.6,1072.5z"/>
	<path fill="#FFFFFF" d="M1005.6,1058.1v29.9h-3.8v-29.9H1005.6z"/>
	<path fill="#FFFFFF" d="M1034.7,1058.1v3.4h-16.7v7.1h16.2v3.4h-16.2v16.1h-3.8v-29.9H1034.7z"/>
	<path fill="#FFFFFF" d="M1066.8,1080.2c0-7.2-16.8-4.4-16.8-14.4c0-5.1,4.4-8.2,10.5-8.2c2.7,0,5.7,0.2,8.7,1.3l-0.5,3.4
		c-2.5-0.8-5.2-1.2-8.1-1.2c-3.9,0-6.7,1.5-6.7,4.6c0,6.7,16.9,3.9,16.9,14.5c0,5.9-5.5,8.5-11.7,8.5c-2.9,0-6-0.3-8.8-1.3l0.5-3.4
		c2,0.8,5.2,1.3,8.4,1.3C1062.7,1085.2,1066.8,1083.9,1066.8,1080.2z"/>
	<path fill="#FFFFFF" d="M1099,1058.1h3.8v18.2c0,6.7-3.6,12.2-13.1,12.2c-9.4,0-13-4.8-13-12.1v-18.4h3.8v17.9
		c0,6.5,3.1,9.1,9.2,9.1c6.1,0,9.2-2.6,9.2-9.6V1058.1z"/>
	<path fill="#FFFFFF" d="M1111.1,1058.1h10.1c7.3,0,10.5,2.2,10.5,7.5c0,3.1-1.7,5.2-4,6.6c3.6,1.2,5.9,3.7,5.9,7.3
		c0,6.3-4.7,8.6-10.7,8.6h-11.7V1058.1z M1120.5,1070.9c4.5-0.4,7.1-1.5,7.1-5c0-3.5-2.3-4.4-6.3-4.4h-6.4v9.9L1120.5,1070.9z
		 M1114.9,1074.5v10.1h7.7c4.4,0,6.9-1.5,6.9-5.4c0-3.3-3-4.8-6.3-5.6c-0.5,0.1-1,0.1-1.5,0.2L1114.9,1074.5z"/>
	<path fill="#FFFFFF" d="M1165.6,1058.1v29.9h-3.8v-16.6H1144v16.6h-3.8v-29.9h3.8v10h17.8v-10H1165.6z"/>
	<path fill="#FFFFFF" d="M1194.8,1058.1v3.4h-16.7v7.1h16.2v3.4h-16.2v12.7h17.6v3.4h-21.4v-29.9H1194.8z"/>
	<path fill="#FFFFFF" d="M1199.8,1088l8.6-29.9h9.6l8.7,29.9h-4l-2.3-8H1206l-2.3,8H1199.8z M1215,1061.5h-3.7l-4.3,15.2h12.4
		L1215,1061.5z"/>
	<path fill="#FFFFFF" d="M1232.4,1088v-29.9h12.1c8.9,0,15,5.1,15,15c0,10-6.2,15-15,15H1232.4z M1244.3,1084.7
		c7,0,11.5-4.2,11.5-11.6c0-7-4.1-11.6-11.5-11.6h-8v23.2H1244.3z"/>
</g>
<g>
	<path fill="#FFFFFF" d="M121.7,2235.4l22.3-68.1c3.3-9.9,1-12.2-10.8-12.9v-6.8H197v6.8c-12.2,0.7-14,2.8-10.9,12.9l21.2,68.1
		c2.4,7.8,5.2,10.6,14.8,11.2v6.8h-42.9v-6.8c13-0.5,16.1-2.8,13.9-10.3l-4.1-13.7h-52l-4.2,13.7c-2.3,7.5,2.4,9.8,15.5,10.3v6.8
		h-41.4v-6.8C116.7,2245.6,119.1,2243.3,121.7,2235.4z M186.1,2213l-16.6-55.6h-11.9l-17.4,55.6H186.1z"/>
	<path fill="#FFFFFF" d="M254.7,2245.1c0,5.9-4.4,10.1-10.3,10.1c-5.9,0-10.3-4.2-10.3-10.1c0-5.9,4.4-10.1,10.3-10.1
		C250.5,2235,254.7,2239.2,254.7,2245.1z"/>
	<path fill="#FFFFFF" d="M345.7,2246.7v6.8h-42.9v-6.8c11.4-1.3,14.7-2.9,14.7-12.9v-66.5c0-9.9-3.3-11.6-14.7-12.9v-6.8h42.9v6.8
		c-11.2,1.3-14.7,3.3-14.7,12.9v66.5C331,2243.4,334.4,2245.4,345.7,2246.7z"/>
	<path fill="#FFFFFF" d="M402.6,2247.3v6.2h-41.9v-6.2c13-1.5,14.3-2.9,14.3-14.7v-40.1c0-9.8-4.6-13.5-16.1-13.5v-6.2l22.7-2.8
		c4.9-0.7,6.7,1.1,6.7,6.2v6.8c8.3-8.1,20.5-13.7,32.6-13.7c15.8,0,26.4,9.9,26.4,27.9v35.4c0,11.7,1.3,13.2,14.3,14.7v6.2h-41.9
		v-6.2c13-1.5,14.3-2.9,14.3-14.7v-31.9c0-12.9-6.5-19.1-19.6-19.1c-9.6,0-18.9,3.3-26.2,8.8v42.2
		C388.2,2244.4,389.5,2245.9,402.6,2247.3z M382.9,2150.5c5.4-8.3,10.6-11.7,17.1-11.7c7.7,0,12.1,4.7,19.6,4.7
		c4.6,0,8.3-1.6,11.1-4.9l4.7,5.1c-4.9,7.7-9.9,11.1-16.1,11.1c-7.2,0-12.5-4.9-19.7-4.9c-4.6,0-9,2-11.6,5.1L382.9,2150.5z"/>
	<path fill="#FFFFFF" d="M547.2,2244.2c2.1,0,5.2-0.8,6.5-1.5l-0.8,7.8c-3.1,3.1-7.3,4.6-11.4,4.6c-7.7,0-12.9-5.7-13.5-15.5
		c-10.3,10.3-21.2,15.5-32.6,15.5c-13.5,0-21.7-7.3-21.7-19.9c0-13.9,9.6-22.5,32.4-29l21.7-6.2v-3.1c0-10.4-7.7-15.3-23.1-15.3
		c-8,0-16.6,1.3-27.2,4.7l-1.6-11.7c10.6-3.7,20.5-5.2,30.5-5.2c23.3,0,34.7,8.1,34.7,25.3v43.7C541,2242,543.2,2244.2,547.2,2244.2
		z M500.9,2243.9c8.6,0,18.4-4.4,26.9-12.1v-24.8l-19.2,6.2c-13.7,4.4-20.9,8.5-20.9,18.3C487.7,2238.7,492.6,2243.9,500.9,2243.9z
		 M500.4,2154.8l20.9-24.4l8.5,9.8l-24.8,19.7L500.4,2154.8z"/>
	<path fill="#FFFFFF" d="M610.4,2247.3v6.2h-45.1v-6.2c13-1.5,14.3-2.9,14.3-14.7v-40.1c0-9.8-4.6-13.5-16.1-13.5v-6.2l22.7-2.8
		c4.9-0.7,6.7,1.1,6.7,6.2v8.1c6-7.5,15.2-15,27.1-15c1.6,0,2.9,0,4.9,0.2l-0.8,15.2c-2.4-0.3-5.1-0.5-7.7-0.5
		c-10.3,0-18.3,1.6-23.5,7.5v40.9C592.8,2244.4,595.7,2245.9,610.4,2247.3z"/>
	<path fill="#FFFFFF" d="M681,2247.3v6.2h-45.1v-6.2c13-1.5,14.3-2.9,14.3-14.7v-40.1c0-9.8-4.6-13.5-16.1-13.5v-6.2l22.7-2.8
		c4.9-0.7,6.7,1.1,6.7,6.2v8.1c6-7.5,15.2-15,27.1-15c1.6,0,2.9,0,4.9,0.2l-0.8,15.2c-2.4-0.3-5.1-0.5-7.7-0.5
		c-10.3,0-18.3,1.6-23.5,7.5v40.9C663.4,2244.4,666.3,2245.9,681,2247.3z"/>
	<path fill="#FFFFFF" d="M748.3,2247.3v6.2h-41.9v-6.2c13-1.5,14.3-2.9,14.3-14.7v-40.1c0-9.8-4.6-13.5-16.1-13.5v-6.2l22.7-2.8
		c4.9-0.7,6.7,1.1,6.7,6.2v56.4C734,2244.4,735.3,2245.9,748.3,2247.3z M725.3,2134.6c5.5,0,10.1,4.6,10.1,9.9
		c0,5.5-4.6,10.1-10.1,10.1s-10.1-4.6-10.1-10.1C715.2,2139.1,719.8,2134.6,725.3,2134.6z"/>
	<path fill="#FFFFFF" d="M813.2,2241.6l2,6.4c-5.1,3.9-13.9,7.2-23,7.2c-13.9,0-21.2-7.5-21.2-24.9v-49.6h-12.6v-7.3
		c12.2-3.1,15.6-8.5,18.3-23h7.5v20.7H814l-0.8,9.6h-29v47.9c0,11.4,4.2,15.5,15.2,15.5C804.2,2244.1,808.4,2243.3,813.2,2241.6z"/>
	<path fill="#FFFFFF" d="M850.5,2224.9c0,12.7,6.5,18.1,19.1,18.1c9.9,0,19.4-3.4,26.7-9.1v-41.2c0-9.8-1.8-13.5-19.4-13.5v-6.2
		l25.9-2.8c4.9-0.5,6.7,1.1,6.7,6.2v56.4c0,9.1,4.6,12.6,16.1,12.6v6.2l-22.7,2.8c-4.9,0.7-6.7-1.1-6.7-6.2v-6.8
		c-8.3,8.1-20.5,14-32.4,14c-16,0-26.6-10.8-26.6-24.1v-39.3c0-9.1-4.6-12.7-16.1-12.7v-6.2l22.7-2.8c4.9-0.7,6.7,1.1,6.7,6.2
		V2224.9z"/>
</g>
<g>
	<path fill="#FFFFFF" d="M1027.5,2250l3.3-26.6h6.7c0.5,15.8,8.3,22,21.8,22c17,0,28.5-9.8,28.5-21c0-8-6-13.5-23.5-19.7
		c-20-7.2-29-15.5-29-28c0-17.6,17.3-30.6,40.9-30.6c9,0,19.4,1.8,29.2,5.2l-3.3,26.6h-6.7c-0.5-15.8-8.1-22-21.7-22
		c-15.5,0-24.3,8.3-24.3,18.4c0,8.1,5.5,12.7,22.3,18.9c20.9,7.7,30,16.5,30,29.8c0,18.7-18.1,32.3-43.7,32.3
		C1048.6,2255.2,1037.2,2253.2,1027.5,2250z"/>
	<path fill="#FFFFFF" d="M1113.8,2185.7l-1.1-5.5c9.8-8.1,15-10.8,19.9-10.8c7.3,0,8,6.2,9.3,11.4l14.5,56.6l26.4-57.9l-15.8-1.3
		l1-6.2l19.4-1.6c8.1-0.7,9,5.9,6.8,9.8l-35.5,66.8l-16.3,32.6l-16.3-0.8l21.2-27.1l-18.7-70.7L1113.8,2185.7z"/>
	<path fill="#FFFFFF" d="M1267.5,2195.7c1.8-10.9,0.3-13.9-5.5-13.9c-6.8,0-17.1,8.5-31.8,25.4l-6.2,46.3l-13,0.8l9.6-73.3l-17,5.1
		l-1.1-5.5c9.8-8.1,17-11.1,21.8-11.1c7.3,0,9.9,6.2,9.3,11.4l-2.1,15.8c13.7-16.8,27.5-27.2,38.1-27.2c9,0,13.7,9,11.4,22.8
		l-0.5,3.4c13.4-16.1,26.9-26.2,37.3-26.2c9,0,13.7,9,11.4,22.8l-8.3,51l17-5.1l1.1,5.5c-9.8,8.1-17,11.1-21.8,11.1
		c-7.3,0-10.1-6.2-9.3-11.4l7.8-47.8c1.8-10.9,0.3-13.9-5.5-13.9c-6.8,0-17,8.3-31.5,24.9l-7.5,46.8l-13,0.8L1267.5,2195.7z"/>
	<path fill="#FFFFFF" d="M1348.7,2157.7l-0.7-5.5c10.6-4.6,16.5-6.2,21.4-6.2c7.3,0,9.9,6.2,9.3,11.4l-5.2,36.5
		c9.6-14.8,22-24.4,32.3-24.4c12.1,0,19.4,12.9,19.4,33.1c0,32.4-19.2,52.6-48.2,52.6c-7.7,0-16-1.3-24.3-3.9l13-93.7L1348.7,2157.7
		z M1371.6,2207.7l-4.9,34.2l22.5,4.4c10.6-3.3,22.5-13.9,22.5-40.6c0-16-3.7-25.3-11.1-25.3
		C1393,2180.5,1382.4,2190.6,1371.6,2207.7z"/>
	<path fill="#FFFFFF" d="M1466.5,2255.2c-18.6,0-27.1-12.9-27.1-34.4c0-30.8,20.9-51.3,45.3-51.3c18.6,0,27.1,12.9,27.1,34.4
		C1511.8,2234.6,1491,2255.2,1466.5,2255.2z M1486.1,2242.9c7.5-7.7,12.6-21.4,12.6-35.7c0-22.5-5.4-32.3-31.9-25.8
		c-8.8,6.5-14,19.9-14,35.9C1452.6,2240.2,1457.4,2251.3,1486.1,2242.9z"/>
	<path fill="#FFFFFF" d="M1542.5,2243.3l17-5.1l1.1,5.5c-9.8,8.1-17,11.1-21.8,11.1c-7.3,0-9.9-6.2-9.3-11.4l11.7-85.9l-17,0.2
		l-0.7-5.5c10.6-4.6,16.5-6.2,21.4-6.2c7.3,0,9.9,6.2,9.3,11.4L1542.5,2243.3z"/>
	<path fill="#FFFFFF" d="M1608.8,2238.2l1.1,5.5c-9.8,8.1-17,11.1-21.8,11.1c-7.3,0-9.9-6.2-9.3-11.4l8.1-62.4l-17,5.1l-1.1-5.5
		c9.8-8.1,17-11.1,21.8-11.1c7.3,0,9.9,6.2,9.3,11.4l-8.1,62.4L1608.8,2238.2z M1606.7,2143.2c0,5.9-5.5,11.4-11.6,11.4
		c-4.9,0-8.6-3.7-8.6-8.6c0-5.9,5.7-11.4,11.6-11.4C1602.9,2134.6,1606.7,2138.3,1606.7,2143.2z"/>
	<path fill="#FFFFFF" d="M1663.2,2234.6c0-21-38.3-20.9-38.3-42.4c0-13.4,11.9-22.8,33.2-22.8c7.7,0,14,1.1,22.7,4.2l-2.4,13.9
		l-26.2-9.9c-7.5,0-13.9,4.9-13.9,11.4c0,13.2,38.6,19.7,38.6,42.4c0,12.4-10.8,23.8-33.1,23.8c-9,0-17.8-1.8-26.1-5.5l2.3-13.4
		l26.9,10.6C1659.8,2247.2,1663.2,2241.3,1663.2,2234.6z"/>
	<path fill="#FFFFFF" d="M1756.3,2195.7c1.8-10.9,0.3-13.9-5.5-13.9c-6.8,0-17.1,8.5-31.8,25.4l-6.2,46.3l-13,0.8l9.6-73.3l-17,5.1
		l-1.1-5.5c9.8-8.1,17-11.1,21.8-11.1c7.3,0,9.9,6.2,9.3,11.4l-2.1,15.8c13.7-16.8,27.5-27.2,38.1-27.2c9,0,13.7,9,11.4,22.8
		l-0.5,3.4c13.4-16.1,26.9-26.2,37.3-26.2c9,0,13.7,9,11.4,22.8l-8.3,51l17-5.1l1.1,5.5c-9.8,8.1-17,11.1-21.8,11.1
		c-7.3,0-10.1-6.2-9.3-11.4l7.8-47.8c1.8-10.9,0.3-13.9-5.5-13.9c-6.8,0-17,8.3-31.5,24.9l-7.5,46.8l-13,0.8L1756.3,2195.7z"/>
</g>
<g>
	<path fill="#FFFFFF" d="M159.4,2434.8v8.6h-47.6v-8.6c11.4-1.3,14.7-2.9,14.7-12.9V2359c0-9.9-3.3-11.6-14.7-12.9v-8.6h47.6v8.6
		c-11.2,1.3-14.7,3.3-14.7,12.9v62.9C144.7,2431.5,148.1,2433.5,159.4,2434.8z"/>
	<path fill="#FFFFFF" d="M218.2,2435.7v7.7h-45.8v-7.7c12.6-1.5,13.9-2.9,13.9-14v-37.8c0-9.8-4.6-13.5-16.1-13.5v-7.7l27.5-2.8
		c4.9-0.5,6.7,1.1,6.7,6.2v8c8.5-9.1,20.2-14.8,32.4-14.8c16.3,0,26.9,10.3,26.9,28.7v33.7c0,10.9,1.5,12.6,13.9,14v7.7h-45.8v-7.7
		c12.6-1.5,13.9-2.9,13.9-14v-28c0-13.2-6-18.9-17.6-18.9c-8.5,0-17,2.9-23.6,7.8v39.1C204.4,2432.6,205.8,2434.3,218.2,2435.7z"/>
	<path fill="#FFFFFF" d="M332.8,2435.7v7.7h-47.4v-7.7c12.4-1.5,13.9-2.9,13.9-14v-39.4H287v-11.7h11.2c-0.2-1.6-0.3-3.3-0.3-4.9
		c0-20.4,15-29.7,47.3-29.7c5.9,0,12.1,0.3,17.1,0.8l8-0.8c4.9-0.5,6.7,1.1,6.7,6.2v79.5c0,10.9,1.5,12.6,13.9,14v7.7h-44.5v-7.7
		c11.4-1.3,12.6-2.9,12.6-14v-68.9c-10.1-2.4-18.1-3.4-25.8-3.4c-13.5,0-18.6,3.3-18.6,11.6c0,2.6,0.5,5.9,1.5,9.6h27.9l-1.6,11.7
		h-24.9v39.4C317.3,2432.8,319.1,2434.6,332.8,2435.7z"/>
	<path fill="#FFFFFF" d="M480,2431.8c2.1,0,4.9-0.8,6.2-1.5l-0.8,9.5c-3.6,3.4-8.5,5.2-13.5,5.2c-9.1,0-15.2-5.7-15.8-15.6
		c-8.5,8.8-19.2,15.6-32.1,15.6c-13,0-22.2-6.8-22.2-20.4c0-14.5,10.3-22.3,32.6-28.2l21.5-5.9v-1.5c0-9.3-6.4-13.9-21.4-13.9
		c-8.5,0-18.3,1.5-28.5,4.4l-1.5-15.2c11.4-3.7,21.7-5.2,32.3-5.2c24.4,0,37.2,8.3,37.2,25.6v41.2
		C474,2429.7,476.1,2431.8,480,2431.8z M432.6,2430.7c8,0,16.5-3.9,23.3-10.1v-21.7l-17.3,5.2c-11.4,3.4-17.8,6.8-17.8,15.6
		C420.8,2426.6,425.2,2430.7,432.6,2430.7z"/>
	<path fill="#FFFFFF" d="M552.9,2429.1l2.3,8.5c-7,4.6-15.6,7.5-25.3,7.5c-16,0-23.6-7.8-23.6-26.2v-46.1H494v-8.5
		c12.7-2.9,18.1-9.8,20.7-24.1h9.6v20.9h29.5l-1.1,11.7h-28.4v45.1c0,9.8,4.4,13.7,14.5,13.7
		C543.4,2431.5,547.8,2430.7,552.9,2429.1z"/>
	<path fill="#FFFFFF" d="M644,2431.8c2.1,0,4.9-0.8,6.2-1.5l-0.8,9.5c-3.6,3.4-8.5,5.2-13.5,5.2c-9.1,0-15.2-5.7-15.8-15.6
		c-8.5,8.8-19.2,15.6-32.1,15.6c-13,0-22.2-6.8-22.2-20.4c0-14.5,10.3-22.3,32.6-28.2l21.5-5.9v-1.5c0-9.3-6.4-13.9-21.4-13.9
		c-8.5,0-18.3,1.5-28.5,4.4l-1.5-15.2c11.4-3.7,21.7-5.2,32.3-5.2c24.4,0,37.2,8.3,37.2,25.6v41.2
		C638,2429.7,640.1,2431.8,644,2431.8z M596.6,2430.7c8,0,16.5-3.9,23.3-10.1v-21.7l-17.3,5.2c-11.4,3.4-17.8,6.8-17.8,15.6
		C584.8,2426.6,589.2,2430.7,596.6,2430.7z"/>
	<path fill="#FFFFFF" d="M698.4,2445c-10.8,0-21.2-2-32.3-8.1v-76.8c0-10.1-3.9-13.7-15.3-13.7v-7.7l27.2-2.8
		c4.6-0.5,6.2,1.3,6.2,6.2v29.3c9.8-8.1,18.3-12.2,29.5-12.2c20.9,0,33.4,13.9,33.4,38.5C747.2,2427.4,728.3,2445,698.4,2445z
		 M684.2,2379.5v49.7c5.2,2.3,10.4,3.4,16.3,3.4c18.9,0,27.5-10.3,27.5-31.8c0-19.1-7.8-27.4-21.4-27.4
		C698.9,2373.5,691.1,2375.9,684.2,2379.5z"/>
	<path fill="#FFFFFF" d="M803.2,2435.7v7.7h-45.6v-7.7c12.4-1.5,13.9-2.9,13.9-14v-61.8c0-9.8-4.6-13.5-16.1-13.5v-7.7l27.4-2.8
		c4.9-0.5,6.7,1.1,6.7,6.2v79.5C789.4,2432.6,791,2434.3,803.2,2435.7z"/>
	<path fill="#FFFFFF" d="M889.8,2426.8l2.1,8.5c-9.8,6.4-22,9.8-34.9,9.8c-26.7,0-43.5-15.3-43.5-40.9c0-26.2,17.9-44.8,42.9-44.8
		c21.5,0,35.9,13.5,35.9,33.7l-57.4,21.2c4.6,11.2,15,16.6,30.5,16.6C873.5,2430.8,881.6,2429.5,889.8,2426.8z M832.7,2405.3
		l39.8-14.8c-0.5-12.4-7.3-18.9-18.4-18.9c-14,0-21.7,10.4-21.7,27.9C832.4,2401.5,832.6,2403.5,832.7,2405.3z"/>
	<path fill="#FFFFFF" d="M934.6,2433.5c0,6.7-5.2,11.6-12.1,11.6c-7,0-12.2-4.9-12.2-11.6s5.2-11.6,12.2-11.6
		S934.6,2426.8,934.6,2433.5z M933.5,2336.1l-4.2,74l-13.2,1.1l-4.6-73.8L933.5,2336.1z"/>
</g>
<g>
	<path fill="#FFFFFF" d="M1068.5,2435.2l-1.1,8.6h-44l1.1-8.6c10.8-1.3,13.7-2.9,14.7-11.7l8.2-65.8c1-7.8-1.8-9.8-13.4-11.1l1-8.6
		h36.5l25.1,51l35.5-51h37l-1,8.6c-12.1,1.1-15,2.9-16,10.9l-8,64.9c-1.3,10.3,2,11.6,12.7,12.9l-1.1,8.6h-46.5l1.1-8.6
		c10.6-1.3,14.5-2.8,15.6-11.6l8.2-66.7h-0.8l-38.8,55.3h-6.8l-26.7-55.4h-0.8l-8,65.2C1051.2,2431.7,1054.4,2433.9,1068.5,2435.2z"
		/>
	<path fill="#FFFFFF" d="M1221.8,2422.4c-9.5,14-20.9,23.1-30.8,23.1c-13,0-20.5-12.9-20.5-32.9c0-32.4,21.2-52.8,50-52.8
		c8.8,0,18.3,1.6,26.7,4.4l-8.8,66l16-3.3l1.1,5.5c-9.9,8.5-18.3,12.9-24.8,12.9c-7,0-11.6-5.1-10.6-11.6L1221.8,2422.4z
		 M1199.4,2431.3c6.4,0,15.5-8.5,24.3-22.7l4.6-32.1l-18.4-6c-11.7,4.2-20.4,13.5-20.4,37.2
		C1189.4,2421.7,1192.3,2431.3,1199.4,2431.3z"/>
	<path fill="#FFFFFF" d="M1339.5,2426l2,4.9c-10.3,9.3-15.2,14.3-21.2,14.3c-5.7,0-8.3-4.2-11.6-9.9l-12.7-24.1l-16.5,23.3l14.2,3.4
		l-1.1,6l-23.6,1c-6.8,0.5-8.8-6-6-9.1l29.2-32.1l-15.5-29.3l-13.5,4.7l-2-4.9c10.3-9.5,15.8-14.3,21.8-14.3c5.5,0,7.8,4.1,10.9,9.9
		l13,24.6l17.4-23.5l-14.2-3.4l1.3-6l23.5-1c7-0.5,9,6.2,6,9.1l-30.2,31.9l15.3,29L1339.5,2426z"/>
	<path fill="#FFFFFF" d="M1392.5,2426.9l1.1,5.5c-10.8,9.1-18.7,12.9-24.8,12.9c-7.5,0-11.6-5.7-10.6-11.6l7.7-58.8l-16.1,3.1
		l-1.1-5.5c10.8-9,18.7-12.7,24.9-12.7c7.5,0,11.2,5.7,10.6,11.6l-7.8,58.8L1392.5,2426.9z M1391.4,2333.5c0,7.3-6.7,14-14,14
		c-6,0-10.6-4.6-10.6-10.4c0-7.3,7-14,14.2-14C1387,2323.1,1391.4,2327.7,1391.4,2333.5z"/>
	<path fill="#FFFFFF" d="M1463.7,2390.9c1.8-11.4,0.3-15.5-5.2-15.5c-5.9,0-14,7-26.9,22.7l-6.2,45.8l-17.8,0.8l9.5-69.8l-16.1,3.1
		l-1.1-5.5c10.8-9,18.7-12.7,24.8-12.7c7.7,0,11.4,5.9,10.6,11.6l-2.1,15.2c13.5-17.3,26.1-26.7,36.7-26.7c10.1,0,15,9.6,12.6,25.4
		v0.2c13.2-16.5,25.4-25.6,35.7-25.6s15.2,9.9,12.4,25.4l-7.7,45l16.1-3.3l1.1,5.5c-10.8,9.1-18.7,12.9-24.8,12.9
		c-7.8,0-11.7-5.9-10.6-11.6l7.3-42.9c2-11.2,0.3-15.5-5.2-15.5c-5.9,0-13.9,6.8-26.4,22l-7.3,46.5l-17.8,0.8L1463.7,2390.9z"/>
	<path fill="#FFFFFF" d="M1640.1,2426.9l1.1,5.5c-10.8,9.1-18.7,12.9-24.8,12.9c-7.5,0-11.4-5.7-10.6-11.6l2.1-15.6
		c-14.5,18.1-28,27.2-39,27.2c-10.3,0-15.3-9.9-12.6-25.6l7.7-44.8l-16.1,3.1l-1.1-5.5c10.8-9,18.7-12.7,24.8-12.7
		c7.5,0,11.6,5.7,10.6,11.6l-7.2,42.7c-1.8,10.8-0.8,15.6,5.2,15.6c6,0,15.5-6.8,29.3-22.8l6.2-45.5l17.9-0.8l-9.8,69.6
		L1640.1,2426.9z"/>
	<path fill="#FFFFFF" d="M1712.1,2390.9c1.8-11.4,0.3-15.5-5.2-15.5c-5.9,0-14,7-26.9,22.7l-6.2,45.8l-17.8,0.8l9.5-69.8l-16.1,3.1
		l-1.1-5.5c10.8-9,18.7-12.7,24.8-12.7c7.7,0,11.4,5.9,10.6,11.6l-2.1,15.2c13.5-17.3,26.1-26.7,36.7-26.7c10.1,0,15,9.6,12.5,25.4
		v0.2c13.2-16.5,25.4-25.6,35.7-25.6s15.2,9.9,12.4,25.4l-7.7,45l16.1-3.3l1.1,5.5c-10.8,9.1-18.7,12.9-24.8,12.9
		c-7.8,0-11.7-5.9-10.6-11.6l7.3-42.9c2-11.2,0.3-15.5-5.2-15.5c-5.9,0-13.9,6.8-26.4,22l-7.3,46.5l-17.8,0.8L1712.1,2390.9z"/>
	<path fill="#FFFFFF" d="M1829.2,2366.3l2.3,21.2h-15l6.8-21.2l-17,16l-6.7-12.4l22.7-7.8l-21-6.4l9.5-12.6l13.9,14.5l-2.3-19.7
		h15.2l-7.8,19.9l18.6-14.8l6.5,12.2l-23.1,6.8l21.4,7.8l-9.5,12.2L1829.2,2366.3z"/>
</g>
<g>
	<path fill="#FFFFFF" d="M1098.6,2634.1H1039l1.3-10.4c15.2-1.3,18.9-2.9,20.2-12.7l8.3-66.8h-13.7c-9.3,0-14,7.2-16.8,19.6H1028
		l4.4-35.5h98.9l-4.4,35.5h-10.3v-1.3c0-11.6-2.9-18.3-12.1-18.3h-13.5l-8.3,67.5c-1.3,10.1,2.9,10.8,17.1,12.1L1098.6,2634.1z"/>
	<path fill="#FFFFFF" d="M1130.4,2569.9l-1.1-5.5c10.1-9.1,17-14.3,24.1-14.3c7.8,0,10.4,5.2,11.9,11.7l12.4,49.9l20.9-48.2
		l-14.2-5.5l1.5-5.9l27.7-0.5c5.7-0.2,7.2,5.1,5.2,8.5l-38.5,64.1l-19.2,36.2l-22.2-0.8l23-25.4l-16.8-65.4L1130.4,2569.9z"/>
	<path fill="#FFFFFF" d="M1222.2,2569.9l-1.1-5.5c11.7-9.8,20.5-14.3,27.7-14.3c7.8,0,12.7,5.2,11.9,11.7l-1.1,8.6
		c9.3-12.7,19.4-20.4,28.7-20.4c13,0,22.5,14.5,22.5,35.4c0,30.5-19.4,50.4-51.5,50.4c-2.9,0-5.7-0.2-8.8-0.5l-3.3,24.1l-22.5,0.8
		l12.9-91.6L1222.2,2569.9z M1257.7,2583.3l-4.7,33.6l17.3,5.7c9.5-4.4,16.3-15.3,16.3-33.1c0-13.4-3.9-22.2-9.9-22.2
		C1271.4,2567.3,1264.2,2573.7,1257.7,2583.3z"/>
	<path fill="#FFFFFF" d="M1356.3,2635.8c-16.1,0-36.3-9.9-36.3-36c0-27.1,21-49.7,46.3-49.7c17.8,0,36.5,9.9,36.5,36
		C1402.8,2613.1,1381.6,2635.8,1356.3,2635.8z M1366.6,2621.4c7.3-6.5,12.1-18.9,12.1-32.3c0-16.8-6.2-26.2-22.2-24.6
		c-7.8,6.4-12.5,18.4-12.5,32.1C1343.9,2613.4,1350.1,2623.4,1366.6,2621.4z"/>
	<path fill="#FFFFFF" d="M1460.8,2644.7l4.9-36.5c-9.8,12.6-21.2,20.7-31.1,20.7c-12.2,0-22.2-10.8-22.2-30.6
		c0-27.7,20.2-48.2,51.8-48.2c9.9,0,21.5,2,30.6,4.9l-8,59.3c-4.6,34.6-17.6,46.3-48.4,46.3c-11.2,0-23.3-1.5-31.6-3.7l5.7-19.9
		L1460.8,2644.7z M1445.8,2612c6.2,0,14.7-7.2,21.7-17.6l3.4-25.1l-18.6-6c-9.9,4.9-15.8,15.8-15.8,30.5
		C1436.5,2606.8,1440.3,2612,1445.8,2612z"/>
	<path fill="#FFFFFF" d="M1504.6,2569.9l-1.1-5.5c11.6-9.8,20.5-14.3,27.7-14.3c7.7,0,12.7,5.2,11.7,11.7l-2.3,17.3
		c5.5-9.8,13.4-23.1,25.1-30l8.3,23l-34.4,13.5l-6.5,48.6l-22.5,0.8l9.1-66.3L1504.6,2569.9z"/>
	<path fill="#FFFFFF" d="M1634.6,2635.8c-7.8,0-13-5.2-11.9-11.9l1.3-9.3c-9.5,13.2-20.4,21.2-29.7,21.2c-13,0-21.4-12.1-21.4-32.3
		c0-31.8,20.9-53.5,52.2-53.5c9.9,0,20,1.8,29.3,4.9l-8.6,62.3l15.3-1.5l1.1,5.5C1650.9,2631,1641.9,2635.8,1634.6,2635.8z
		 M1605.9,2618.5c5.2,0,13-6.7,20-17l4.6-32.6l-16.5-5.9c-10.3,4.7-17,14.3-17,33.7C1597.1,2609.7,1599.8,2618.5,1605.9,2618.5z"/>
	<path fill="#FFFFFF" d="M1667.6,2569.9l-1.1-5.5c11.7-9.8,20.5-14.3,27.7-14.3c7.8,0,12.7,5.2,11.9,11.7l-1.1,8.6
		c9.3-12.7,19.4-20.4,28.7-20.4c13,0,22.5,14.5,22.5,35.4c0,30.5-19.4,50.4-51.5,50.4c-2.9,0-5.7-0.2-8.8-0.5l-3.3,24.1l-22.5,0.8
		l12.9-91.6L1667.6,2569.9z M1703.2,2583.3l-4.7,33.6l17.3,5.7c9.5-4.4,16.3-15.3,16.3-33.1c0-13.4-3.9-22.2-9.9-22.2
		C1716.9,2567.3,1709.7,2573.7,1703.2,2583.3z"/>
	<path fill="#FFFFFF" d="M1826.1,2586.1c2-10.4,1.1-17.1-4.9-17.1c-5.1,0-12.4,5.1-24.9,19.7l-6.2,45.5l-22.5,0.8l12.6-89.8
		l-15.3,0.2l-1-5.5c11.9-9,20.4-13.2,27.7-13.2c7.7,0,12.7,5.2,11.7,11.7l-5.2,38.1c14.8-18.9,27.1-26.4,38-26.4
		c11.6,0,16.5,10.9,13.5,28l-7.2,39.1l15.3-1.5l1,5.5c-11.6,9.9-20.4,14.5-27.7,14.5c-7.7,0-13-5.2-11.7-11.9L1826.1,2586.1z"/>
</g>
<g>
	<path fill="#FFFFFF" d="M148.6,2525.9l1.5,4.9c-22,2.6-29.7,13.2-29.7,31.8c0,5.1,1,10.1,2.9,14c2.8-3.7,6.4-6.4,10.3-6.4
		c4.1,0,7.2,3.4,7.7,8c1.3-1,2.9-1.5,4.6-1.5c4.2,0,7.2,3.1,8.5,8c1.6-2,3.6-3.1,6-3.1c7,0,9.6,6.7,10.3,13c0,0,1.5,48.6,1.8,54
		c0.2,4.1,2.4,7.3,5.7,7.3c3.6,0,5.4-1.8,5.7-6.8c0.7-7.7,1.5-48.7,1.5-60.8c0-11.7-1.6-19.2-3.4-24.4c-4.7-1.1-9.3-2.4-13.9-2.4
		c-4.2,0-9,1.3-10.6,7.8l-4.2-2.3c2.3-6.8,6.8-10.4,14.8-10.4c7.2,0,16,4.1,25.9,4.1c10.4,0,16.5-5.2,19.4-9.9c-2,0.7-5.4,1.5-8,1
		c-4.6-0.7-6.5-3.9-7-8.6c-1.6,0.2-3.1,0.3-4.4,0.3c-7.8,0-13.7-3.7-17.4-10.6l3.4-3.4c2.9,5.9,7.7,9,13.9,9
		c7.2,0,15.5-2.3,19.9-2.3c4.4,0,6.7,3.3,6.7,7.5c0,7.2-7.7,22.2-26.7,22.2c-2.1,0-4.1-0.2-6.2-0.5c1.8,4.2,2.9,10.9,2.9,23.1
		c0,13.7-1,54.8-1.6,61.6c-0.3,6.2-3.3,12.9-9.9,12.9c-7.3,0-11.1-6.2-11.4-13.7c-0.2-2.8-0.3-9.8-0.5-17.9
		c-1.6,2.3-3.9,3.9-7.2,3.9c-5.7,0-9.1-4.1-10.4-12.9c-1.8,2.4-4.1,4.6-7.8,4.6c-5.4,0-10.3-3.9-10.3-15.2v-0.8
		c-1.5,1.5-3.3,2.6-6.2,2.6c-4.9,0-9.3-3.9-9.3-12.7c0-5.9,1.8-13.2,4.7-19.2c-2.8-4.7-5.1-12.1-5.1-19.1
		C115.4,2539.3,128.3,2528.4,148.6,2525.9z M131.7,2603c0.5-4.2,1.3-8.5,2.4-12.4c-4.1,0.8-8.3-1.1-10.9-5.1
		c-2.1,4.9-3.4,10.6-3.4,14.7c0,5.4,2.9,7.5,5.7,7.5C128.4,2607.7,130.7,2605.8,131.7,2603z M125.5,2581.3c2.8,4.7,6.5,6.2,10.4,4.4
		c0.5-1,1-2,1.5-2.9c1.3-4.9-0.8-7.8-4.1-7.8C130.4,2575,127.8,2577.6,125.5,2581.3z M150.1,2594.4c-4.2,1.3-9,0-11.7-3.4
		c-2.1,6.7-3.1,15.5-3.1,21c0,6.4,3.1,8.8,6.4,8.8c3.4,0,6-2.1,7-5.9c-0.2-1.3-0.2-2.8-0.2-4.2
		C148.5,2604.6,149,2599.1,150.1,2594.4z M140,2586.9c3.1,3.7,7.8,4.4,11.2,2.3c0.2-4.7-1.5-7.7-5.5-7.7
		C143.4,2581.5,141.5,2583.6,140,2586.9z M166.6,2620.5c-0.2-8.3-0.5-16.3-0.5-21c-4.2,2.1-9.5,1-12.6-2.6c-0.8,4.2-1,9.1-1,13.9
		c0,12.9,1.8,17.9,6.8,17.9C163.6,2628.6,166.6,2625.3,166.6,2620.5z M154.5,2592.4c3.1,3.7,8,4.4,11.4,2.3
		c-0.2-4.6-1.6-8.5-5.5-8.5C157.6,2586.2,155.8,2588.7,154.5,2592.4z M201.9,2542.5c0.2,2,1,4.7,3.4,5.1c3.1,0.5,8-0.7,9.9-1.1
		c0.2-0.8,0.3-1.5,0.3-2c0-2.3-0.7-3.3-2.9-3.3C210.2,2541.2,206,2542.1,201.9,2542.5z"/>
	<path fill="#FFFFFF" d="M253.9,2576.4c0,28,16.8,42.5,38,42.5c7.5,0,16.8-1.8,24.9-5.1l4.2,14.7c-10.9,4.6-23,7.2-35.5,7.2
		c-31.6,0-55.9-16.6-55.9-52.5c0-35.2,23.3-56.7,59-56.7c9.6,0,19.7,1.6,31.1,4.6v30.8h-10.4c-1.6-15.2-12.4-19.4-25.4-19.4
		C262.1,2542.5,253.9,2555.9,253.9,2576.4z"/>
	<path fill="#FFFFFF" d="M376.5,2550c25.6,0,44,15.6,44,40.3c0,25.8-20.4,45.5-48.1,45.5c-25.4,0-43.4-15.3-43.4-40.3
		C329.1,2570.3,348,2550,376.5,2550z M374.7,2620.6c13.7,0,21.2-10.6,21.2-27.5c0-17.3-8.3-27.9-21.2-27.9
		c-13.5,0-21.2,11.6-21.2,28.5S361.7,2620.6,374.7,2620.6z"/>
	<path fill="#FFFFFF" d="M480.3,2625v9.1h-49.5v-9.1c11.7-1.3,13.4-2.9,13.4-13.4v-35.5c0-9.8-4.6-13.5-16.1-13.5v-9.1l32.1-2.8
		c4.9-0.3,6.8,1.1,6.8,6.2v9c8.8-9.9,20-15.8,32.3-15.8c16.6,0,27.2,10.6,27.2,29.3v32.3c0,10.1,1.8,12.1,13.4,13.4v9.1h-49.4v-9.1
		c11.7-1.3,13.4-2.9,13.4-13.4v-24.3c0-13.4-5.5-18.7-15.8-18.7c-7.5,0-15,2.6-21,6.8v36.2C467,2621.8,468.6,2623.7,480.3,2625z"/>
	<path fill="#FFFFFF" d="M607.5,2617.5l2.8,10.4c-9,5.2-17.4,7.8-27.7,7.8c-17.9,0-25.8-8-25.8-27.7v-42.5h-12.1v-9.6
		c13.2-2.9,20.5-10.9,23.1-25.3h11.6v21h29.3l-1.3,13.9h-28v42.5c0,8,4.6,11.9,13.9,11.9C597.5,2620,602.3,2619.1,607.5,2617.5z"/>
	<path fill="#FFFFFF" d="M672.5,2625v9.1h-54v-9.1c11.7-1.3,13.4-2.9,13.4-13.4v-35.5c0-9.8-4.6-13.5-16.1-13.5v-9.1l32.1-2.8
		c4.9-0.3,6.8,1.1,6.8,6.2v11.7c7.3-10.6,16.8-18.6,27.2-18.6c1.5,0,3.4,0,5.1,0.2l-1,23.6c-3.1-0.3-7-0.5-10.8-0.5
		c-7.5,0-14.8,1-20.5,5.4v32.9C654.7,2621.8,657.2,2623.7,672.5,2625z"/>
	<path fill="#FFFFFF" d="M778,2620.1c2.1,0,4.7-0.7,6-1.3l-0.8,11.1c-4.2,3.9-9.6,5.9-15.8,5.9c-10.3,0-17.1-5.7-17.9-15.8
		c-6.7,7.8-17.6,15.8-31.6,15.8c-12.6,0-22.7-6.5-22.7-21c0-14.8,10.9-21.8,32.8-27.4l21.4-5.4c-0.2-8.3-5.4-12.4-19.4-12.4
		c-9.1,0-20,1.6-29.8,4.2l-1.5-18.7c12.2-3.4,23-5.1,34.1-5.1c25.6,0,39.4,8.5,39.4,25.9v39C772.1,2618.3,774.1,2620.1,778,2620.1z
		 M729.7,2618.5c7.2,0,14.2-3.4,19.6-8.1v-18.7l-15.3,4.1c-9.1,2.4-14.8,5.4-14.8,13.4C719.1,2615.4,723.2,2618.5,729.7,2618.5z"/>
	<path fill="#FFFFFF" d="M841.2,2611.5c0-5.7-6-7.8-17.6-10.8c-18.9-4.7-30.6-10.9-30.6-25.6c0-16,14.2-25.1,38.1-25.1
		c11.1,0,22.2,2,29.7,4.9v23.5h-9.3c-1.8-9.5-7.7-13.2-19.4-13.2c-8.3,0-15.2,2.1-15.2,7.7c0,5.4,7,7.8,19.1,10.6
		c19.6,4.6,29.2,11.2,29.2,24.9c0,17.4-14.8,27.4-39.9,27.4c-10.6,0-22.2-1.8-31.1-4.7v-23.8h9.3c1.8,9.5,7.5,13.4,20,13.4
		C834.4,2620.6,841.2,2617.7,841.2,2611.5z"/>
	<path fill="#FFFFFF" d="M936.6,2617.5l2.8,10.4c-9,5.2-17.4,7.8-27.7,7.8c-17.9,0-25.8-8-25.8-27.7v-42.5h-12.1v-9.6
		c13.2-2.9,20.5-10.9,23.1-25.3h11.6v21h29.3l-1.3,13.9h-28v42.5c0,8,4.6,11.9,13.9,11.9C926.6,2620,931.4,2619.1,936.6,2617.5z"/>
</g>
<g>
	<path fill="#FFFFFF" d="M1024.3,2821.7l3.7-30.5h11.4c0.8,11.7,6.4,17,19.6,17c12.7,0,22.5-3.4,22.5-12.1c0-5.7-4.2-8-17.6-13.9
		c-19.2-8.5-32.9-15.5-32.9-31.6c0-20.4,19.4-33.7,46.5-33.7c9.9,0,22.8,1.8,32.9,4.4l-3.7,30h-11.4c-0.8-11.9-8-16.5-19.1-16.5
		c-11.4,0-17.8,4.9-17.8,11.2c0,5.9,4.4,8.2,16.8,13c22.2,8.6,33.7,16.5,33.7,32.6c0,21.4-19.9,34.4-49.9,34.4
		C1047.6,2826.1,1033.9,2824.3,1024.3,2821.7z"/>
	<path fill="#FFFFFF" d="M1166.6,2805.1l1.1,5.5c-12.2,10.4-21.7,15.5-29.7,15.5c-7.8,0-14-4.9-12.7-11.9l7-53l-14.7,0.2l-1.1-5.5
		c12.2-10.4,21.7-15.5,29.7-15.5c7.8,0,13.7,4.9,12.7,11.9l-7,53L1166.6,2805.1z M1167.2,2714.3c0,9.5-8.6,18.3-18.1,18.3
		c-7.8,0-13.7-5.9-13.7-13.7c0-9.5,8.8-18.3,18.3-18.3C1161.4,2700.6,1167.2,2706.5,1167.2,2714.3z"/>
	<path fill="#FFFFFF" d="M1220.7,2833.8l4.6-34.7c-9.6,11.9-20.5,19.7-30,19.7c-11.7,0-22.8-10.1-22.8-29.8
		c0-27.2,20.9-48.6,53.5-48.6c10.3,0,22,2,31.6,5.2l-8,59c-4.6,33.4-19.2,46.8-50.5,46.8c-10.9,0-23.5-1.6-31.9-4.1l7-22.7
		L1220.7,2833.8z M1208.5,2800c5.5,0,12.9-6.4,18.6-14.2l3.3-25.1l-15.8-5.7c-9.8,5.1-14.3,16.3-14.3,29.2
		C1200.2,2796.3,1204.1,2800,1208.5,2800z"/>
	<path fill="#FFFFFF" d="M1329.9,2779.7c2-10.3,1.5-18.3-4.6-18.3c-4.6,0-10.4,3.9-22.2,18.1l-6.2,45l-25.6,0.8l9-64.1l-14.7,0.2
		l-1.1-5.5c12.2-10.4,21.7-15.5,29.7-15.5c7.8,0,13.7,4.9,12.7,11.9l-2,14.5c15.2-20,26.4-26.4,37.5-26.4
		c12.4,0,17.6,11.6,14.2,29.8l-6.7,35l14.7-0.2l1.1,5.5c-12.2,10.4-21.7,15.5-29.7,15.5c-7.8,0-14-4.9-12.7-11.9L1329.9,2779.7z"/>
	<path fill="#FFFFFF" d="M1418.9,2805.1l1.1,5.5c-12.2,10.4-21.7,15.5-29.7,15.5c-7.8,0-14-4.9-12.7-11.9l7-53l-14.7,0.2l-1.1-5.5
		c12.2-10.4,21.7-15.5,29.7-15.5c7.8,0,13.7,4.9,12.7,11.9l-7,53L1418.9,2805.1z M1419.6,2714.3c0,9.5-8.6,18.3-18.1,18.3
		c-7.8,0-13.7-5.9-13.7-13.7c0-9.5,8.8-18.3,18.3-18.3C1413.7,2700.6,1419.6,2706.5,1419.6,2714.3z"/>
	<path fill="#FFFFFF" d="M1437.3,2765.3h-12.1l2.1-13.7h11.7c5.2-26.1,24.9-34.6,41.6-34.6c3.4,0,10.9,0.7,16.3,2.1l-5.1,20.2
		l-26.1-2.9l-1.5,15.2h23c6-2.9,11.6-4.7,16.5-4.7c7.8,0,13.7,4.9,12.7,11.9l-6.7,46.5l14.7-0.2l1.1,5.5
		c-12.2,10.4-21.7,15.5-29.7,15.5c-7.8,0-14-4.9-12.7-11.9l6.8-48.9h-27.2l-4.7,46.9c-4.2,29.7-23.6,39.1-40.6,39.1
		c-2.9,0-9.3-0.8-14-2.1l3.4-20.2l22.3,4.4L1437.3,2765.3z"/>
	<path fill="#FFFFFF" d="M1558.1,2787.2c0,14.2,4.9,21.5,17,21.5c5.1,0,14-1.1,19.7-2.8l1.6,6.8c-11.2,9-22.2,13.4-33.4,13.4
		c-20.2,0-32.6-14.3-32.6-36c0-27.2,19.7-49.7,48.9-49.7c5.4,0,13.7,0.8,24.4,3.3l-5.5,24.8l-26.7-13.9
		C1563.3,2760.3,1558.1,2772.2,1558.1,2787.2z"/>
	<path fill="#FFFFFF" d="M1668.3,2826.1c-8.3,0-14-5.2-12.7-11.9l1.1-8.3c-9.5,12.7-19.9,20.2-28.9,20.2
		c-13.2,0-22.2-11.4-22.2-31.9c0-31.1,20.7-53.8,53.8-53.8c10.4,0,21,1.8,31,5.2l-8.3,59.7l14.7-0.2l1.1,5.5
		C1685.6,2821.2,1676.3,2826.1,1668.3,2826.1z M1641.6,2806.9c4.4,0,11.2-5.7,17-13.5l4.7-32.6l-15.2-5.7
		c-9.5,4.9-14.7,15-14.7,31.5C1633.4,2798.6,1636.2,2806.9,1641.6,2806.9z"/>
	<path fill="#FFFFFF" d="M1766.3,2779.7c2-10.3,1.5-18.3-4.6-18.3c-4.6,0-10.4,3.9-22.2,18.1l-6.2,45l-25.6,0.8l9-64.1l-14.7,0.2
		l-1.1-5.5c12.2-10.4,21.7-15.5,29.7-15.5c7.8,0,13.7,4.9,12.7,11.9l-2,14.5c15.2-20,26.4-26.4,37.5-26.4
		c12.4,0,17.6,11.6,14.2,29.8l-6.7,35l14.7-0.2l1.1,5.5c-12.2,10.4-21.7,15.5-29.7,15.5c-7.8,0-14-4.9-12.7-11.9L1766.3,2779.7z"/>
	<path fill="#FFFFFF" d="M1866.8,2806.2l0.8,8.5c-11.9,7.3-19.4,11.4-29.8,11.4c-19.2,0-26.4-8.3-23-28.5l6.4-41.9h-12.4l2.1-11.7
		l13.5-1.1l6.8-22.2l19.7,0.2l-2.9,21.2h25.8l-3.7,13.7h-23.8l-7.3,52.6L1866.8,2806.2z"/>
</g>
<g>
	<path fill="#FFFFFF" d="M165.6,2812.8v11.7H110v-11.7c11.4-1.3,14.7-2.9,14.7-12.9v-56.7c0-9.9-3.3-11.6-14.7-12.9v-11.7h55.6v11.7
		c-11.2,1.3-14.7,3.3-14.7,12.9v11.9h50.7v-11.9c0-9.9-3.3-11.6-14.7-12.9v-11.7h55.6v11.7c-11.2,1.3-14.7,3.3-14.7,12.9v56.7
		c0,9.6,3.4,11.6,14.7,12.9v11.7h-55.6v-11.7c11.4-1.3,14.7-2.9,14.7-12.9V2773h-50.7v26.9C150.9,2809.5,154.3,2811.4,165.6,2812.8z
		"/>
	<path fill="#FFFFFF" d="M296.8,2740.4c26.2,0,44.5,15.6,44.5,39.8c0,26.1-21.4,46-50,46c-25.6,0-43.7-15.6-43.7-40.1
		C247.6,2760.4,267.5,2740.4,296.8,2740.4z M324.5,2723.1l-7.8,8.6l-22.8-12.2l-23.8,12.2l-7.3-8.6l28.7-23.3h5.5L324.5,2723.1z
		 M294,2809c12.2,0,19.2-9.5,19.2-25.6c0-16-6.8-25.9-18.6-25.9c-12.2,0-19.1,10.4-19.1,26.4C275.6,2799.6,282.1,2809,294,2809z"/>
	<path fill="#FFFFFF" d="M413,2806.2l2.9,11.7c-10.1,5.7-18.6,8.1-29.2,8.1c-19.4,0-27.4-8.1-27.4-28.5v-40.3h-11.9v-10.4
		c13.5-2.8,22.2-11.7,24.8-26.1h13v21.2h29.2l-1.6,15.3h-27.5v40.6c0,7,4.7,10.8,13.4,10.8C402.7,2808.7,407.6,2807.9,413,2806.2z"
		/>
	<path fill="#FFFFFF" d="M499.1,2805.3l2.3,11.7c-10.4,5.9-23,9.1-36.3,9.1c-28,0-45.5-14.5-45.5-39.3c0-26.7,20-46.5,47.1-46.5
		c22.8,0,37.2,14.2,37.2,36.3l-53,19.7c4.9,8.3,14.3,12.1,28,12.1C486.5,2808.5,491.7,2807.5,499.1,2805.3z M447.4,2785.5l29.5-11.7
		c0-10.6-5.1-16.3-14.3-16.3c-10.4,0-15.6,7.2-15.6,21.5C446.9,2781.3,447.1,2783.6,447.4,2785.5z"/>
	<path fill="#FFFFFF" d="M561.7,2814.4v10.1h-52v-10.1c11.4-1.3,13-2.9,13-12.9v-58c0-9.8-4.6-13.5-16.1-13.5v-10.1l35.4-2.8
		c4.9-0.3,6.7,1.1,6.7,6.2v78.2C548.6,2811.1,550.4,2813.1,561.7,2814.4z"/>
	<path fill="#FFFFFF" d="M604.9,2821.7v-30.5h11.7c2.9,14.5,11.9,17,22.7,17c11.2,0,21.4-2.6,21.4-11.9c0-7.2-6-9.8-19.9-13.7
		c-18.7-5.4-37.8-12.6-37.8-33.3c0-21,17.6-32.4,46-32.4c8,0,21.2,1.1,32.1,4.4v30h-11.7c-2.9-14.5-12.7-16.5-21.5-16.5
		c-10.8,0-17.3,3.1-17.3,10.3c0,8,8.3,10.4,18.9,13.4c19.4,5.4,38.8,11.1,38.8,34.4c0,25.8-24.1,33.3-49.2,33.3
		C627.9,2826.1,615.1,2824.5,604.9,2821.7z"/>
	<path fill="#FFFFFF" d="M746.3,2740.4c26.2,0,44.5,15.6,44.5,39.8c0,26.1-21.4,46-50,46c-25.6,0-43.7-15.6-43.7-40.1
		C697.1,2760.4,717,2740.4,746.3,2740.4z M743.6,2809c12.2,0,19.2-9.5,19.2-25.6c0-16-6.8-25.9-18.6-25.9
		c-12.2,0-19.1,10.4-19.1,26.4C725.2,2799.6,731.7,2809,743.6,2809z"/>
	<path fill="#FFFFFF" d="M849.7,2814.4v10.1h-52v-10.1c11.4-1.3,13-2.9,13-12.9v-58c0-9.8-4.6-13.5-16.1-13.5v-10.1l35.4-2.8
		c4.9-0.3,6.7,1.1,6.7,6.2v78.2C836.7,2811.1,838.4,2813.1,849.7,2814.4z"/>
	<path fill="#FFFFFF" d="M916.4,2824.5h-31.3l-23.6-63.4c-2.3-6.2-3.4-7.8-11.6-9V2742h48.2v10.1c-9,1-10.8,3.3-8.5,9.5l14.8,41.7
		h1.3l14-41.7c2.1-6.2,0.5-8.5-8.5-9.5V2742h38.5v10.1c-8.2,1.1-9.5,2.8-11.6,9L916.4,2824.5z"/>
</g>
<g>
	<path fill="#FFFFFF" d="M814.8,2047.1v-29.9h12.1c8.9,0,15,5.1,15,15c0,10-6.2,15-15,15H814.8z M826.7,2043.8
		c7,0,11.5-4.2,11.5-11.6c0-7-4.1-11.6-11.5-11.6h-8v23.2H826.7z"/>
	<path fill="#FFFFFF" d="M869.3,2017.2v3.4h-16.7v7.1h16.2v3.4h-16.2v12.7h17.6v3.4h-21.4v-29.9H869.3z"/>
	<path fill="#FFFFFF" d="M881.1,2017.2v26.5h16.3v3.4h-20.1v-29.9H881.1z"/>
	<path fill="#FFFFFF" d="M910.2,2043.8h0.3l9.8-26.6h3.9l-10.8,29.9h-6.2l-11.2-29.9h4.1L910.2,2043.8z"/>
	<path fill="#FFFFFF" d="M925.1,2047.1l8.6-29.9h9.6l8.7,29.9h-4l-2.3-8h-14.4l-2.3,8H925.1z M940.3,2020.6h-3.7l-4.3,15.2h12.4
		L940.3,2020.6z"/>
	<path fill="#FFFFFF" d="M957.7,2047.1v-29.9h12.1c7.5,0,9.6,4,9.6,8.5c0,4.5-2.2,7.1-5.9,8.4l6.9,13.1h-4.5l-6.3-12.2l-8.1,0.9
		v11.3H957.7z M968.6,2031.6c4.7-0.5,6.8-1.9,6.8-5.8c0-3.3-1.5-5.2-5.8-5.2h-8.1v11.8L968.6,2031.6z"/>
	<path fill="#FFFFFF" d="M986.8,2047.1v-29.9h12.1c8.9,0,15,5.1,15,15c0,10-6.2,15-15,15H986.8z M998.6,2043.8
		c7,0,11.5-4.2,11.5-11.6c0-7-4.1-11.6-11.5-11.6h-8v23.2H998.6z"/>
	<path fill="#FFFFFF" d="M1046.7,2039.3c0-7.2-16.8-4.4-16.8-14.4c0-5.1,4.4-8.2,10.5-8.2c2.7,0,5.7,0.2,8.7,1.3l-0.5,3.4
		c-2.5-0.8-5.2-1.2-8.1-1.2c-3.9,0-6.7,1.5-6.7,4.6c0,6.7,16.9,3.9,16.9,14.5c0,5.9-5.5,8.5-11.7,8.5c-2.9,0-6-0.3-8.8-1.3l0.5-3.4
		c2,0.8,5.2,1.3,8.4,1.3C1042.6,2044.3,1046.7,2043,1046.7,2039.3z"/>
	<path fill="#FFFFFF" d="M1077.6,2017.2v3.4h-16.7v7.1h16.2v3.4h-16.2v12.7h17.6v3.4h-21.4v-29.9H1077.6z"/>
	<path fill="#FFFFFF" d="M1085.5,2047.1v-29.9h12.1c7.5,0,9.6,4,9.6,8.5c0,4.5-2.2,7.1-5.9,8.4l6.9,13.1h-4.5l-6.3-12.2l-8.1,0.9
		v11.3H1085.5z M1096.4,2031.6c4.7-0.5,6.8-1.9,6.8-5.8c0-3.3-1.5-5.2-5.8-5.2h-8.1v11.8L1096.4,2031.6z"/>
	<path fill="#FFFFFF" d="M1118.4,2017.2v29.9h-3.8v-29.9H1118.4z"/>
	<path fill="#FFFFFF" d="M1147.6,2017.2v3.4h-16.7v7.1h16.2v3.4h-16.2v16.1h-3.8v-29.9H1147.6z"/>
</g>
<line fill="none" stroke="#FFFFFF" stroke-miterlimit="10" x1="105" y1="114.8" x2="672.4" y2="114.8"/>
<line fill="none" stroke="#FFFFFF" stroke-miterlimit="10" x1="1285.6" y1="114.8" x2="1853" y2="114.8"/>
<line fill="none" stroke="#FFFFFF" stroke-miterlimit="10" x1="105" y1="1071.4" x2="672.4" y2="1071.4"/>
<line fill="none" stroke="#FFFFFF" stroke-miterlimit="10" x1="1285.6" y1="1071.4" x2="1853" y2="1071.4"/>
<line fill="none" stroke="#FFFFFF" stroke-miterlimit="10" x1="105" y1="2030.9" x2="672.4" y2="2030.9"/>
<line fill="none" stroke="#FFFFFF" stroke-miterlimit="10" x1="1285.6" y1="2030.9" x2="1853" y2="2030.9"/>
</svg>
